<svg id="svg" version="1.1" xmlns="http://www.w3.org/2000/svg" xmlns:xlink="http://www.w3.org/1999/xlink" width="400" height="400" viewBox="0, 0, 400,400"><g id="svgg"><path id="path0" d="M203.000 73.844 C 201.900 74.153,198.348 74.650,195.107 74.948 C 191.835 75.249,188.951 75.709,188.622 75.982 C 188.296 76.253,186.627 76.646,184.914 76.856 C 183.202 77.066,181.080 77.572,180.200 77.980 C 179.320 78.388,177.700 78.846,176.600 78.997 C 175.500 79.148,174.327 79.515,173.994 79.813 C 173.660 80.111,172.580 80.538,171.594 80.762 C 170.607 80.987,169.087 81.537,168.215 81.985 C 167.344 82.433,166.333 82.800,165.969 82.800 C 165.606 82.800,164.879 83.126,164.354 83.524 C 163.829 83.923,162.656 84.463,161.747 84.726 C 160.839 84.989,159.872 85.473,159.598 85.802 C 159.325 86.131,158.789 86.400,158.407 86.400 C 158.024 86.400,157.049 86.850,156.238 87.400 C 155.428 87.950,154.530 88.400,154.244 88.400 C 153.958 88.400,153.404 88.753,153.014 89.185 C 152.623 89.617,151.711 90.165,150.987 90.404 C 150.263 90.643,149.570 91.100,149.448 91.419 C 149.325 91.739,148.974 92.000,148.668 92.000 C 148.361 92.000,147.431 92.540,146.600 93.200 C 145.769 93.860,144.943 94.400,144.763 94.400 C 144.583 94.400,144.001 94.805,143.469 95.300 C 142.937 95.795,141.835 96.650,141.020 97.200 C 136.749 100.083,123.200 113.137,123.200 114.369 C 123.200 114.672,120.708 118.021,119.600 119.208 C 119.270 119.561,118.550 120.620,118.000 121.561 C 117.450 122.501,116.595 123.731,116.100 124.294 C 115.605 124.856,115.200 125.526,115.200 125.781 C 115.200 126.036,114.750 126.855,114.200 127.600 C 113.650 128.345,113.200 129.258,113.200 129.629 C 113.200 129.999,112.939 130.518,112.620 130.783 C 112.302 131.048,111.829 131.925,111.570 132.732 C 111.311 133.539,110.843 134.494,110.530 134.853 C 110.218 135.212,109.770 136.199,109.536 137.046 C 109.302 137.894,108.771 139.020,108.355 139.548 C 107.940 140.076,107.599 140.979,107.599 141.554 C 107.598 142.129,107.224 143.212,106.768 143.960 C 106.312 144.708,105.778 146.308,105.581 147.516 C 105.385 148.723,104.949 150.014,104.613 150.385 C 104.277 150.757,103.889 152.215,103.750 153.630 C 103.611 155.044,103.177 157.010,102.785 158.000 C 102.359 159.074,101.887 161.978,101.615 165.200 C 101.364 168.170,100.949 171.860,100.693 173.400 C 100.093 177.006,100.093 186.594,100.693 190.200 C 100.949 191.740,101.364 195.430,101.615 198.400 C 101.887 201.622,102.359 204.526,102.785 205.600 C 103.177 206.590,103.611 208.556,103.750 209.970 C 103.889 211.385,104.277 212.843,104.613 213.215 C 104.949 213.586,105.385 214.877,105.581 216.084 C 105.778 217.292,106.312 218.892,106.768 219.640 C 107.224 220.388,107.598 221.471,107.599 222.046 C 107.599 222.621,107.940 223.524,108.355 224.052 C 108.771 224.580,109.302 225.706,109.536 226.554 C 109.770 227.401,110.218 228.388,110.530 228.747 C 110.843 229.106,111.311 230.061,111.570 230.868 C 111.829 231.675,112.302 232.552,112.620 232.817 C 112.939 233.082,113.200 233.601,113.200 233.971 C 113.200 234.342,113.650 235.255,114.200 236.000 C 114.750 236.745,115.200 237.564,115.200 237.819 C 115.200 238.074,115.605 238.744,116.100 239.306 C 116.595 239.869,117.450 241.090,118.000 242.019 C 118.550 242.949,119.944 244.900,121.098 246.355 C 122.252 247.810,123.197 249.119,123.198 249.266 C 123.202 249.759,134.890 262.000,135.357 262.000 C 135.471 262.000,135.996 262.405,136.525 262.900 C 137.053 263.395,137.916 264.115,138.443 264.500 C 138.969 264.885,140.575 266.145,142.011 267.300 C 144.817 269.557,145.403 269.960,147.673 271.190 C 148.483 271.629,149.260 272.174,149.400 272.400 C 149.540 272.627,150.227 273.087,150.927 273.424 C 151.627 273.760,153.100 274.551,154.200 275.181 C 155.300 275.810,156.965 276.692,157.900 277.140 C 158.835 277.588,159.600 278.145,159.600 278.378 C 159.600 278.610,160.023 278.800,160.540 278.800 C 161.058 278.800,162.273 279.220,163.240 279.733 C 164.208 280.247,165.513 280.795,166.140 280.951 C 166.767 281.107,167.757 281.569,168.340 281.978 C 168.923 282.386,170.205 282.837,171.190 282.979 C 172.174 283.122,173.305 283.533,173.704 283.894 C 174.103 284.255,175.513 284.678,176.838 284.834 C 178.163 284.990,179.551 285.387,179.923 285.715 C 180.296 286.043,182.087 286.508,183.904 286.748 C 185.722 286.988,187.702 287.436,188.304 287.743 C 188.907 288.050,191.200 288.425,193.400 288.576 C 195.600 288.727,198.750 289.154,200.400 289.525 C 204.645 290.480,226.292 290.479,230.851 289.523 C 232.529 289.171,235.859 288.753,238.251 288.593 C 240.650 288.433,243.102 288.046,243.719 287.731 C 244.335 287.417,246.315 286.992,248.121 286.787 C 249.927 286.581,252.116 286.051,252.987 285.607 C 253.857 285.163,255.299 284.800,256.191 284.800 C 257.082 284.800,258.457 284.454,259.246 284.031 C 260.035 283.609,261.727 283.069,263.007 282.833 C 264.287 282.596,265.619 282.147,265.967 281.835 C 266.315 281.523,267.318 281.134,268.197 280.971 C 269.075 280.808,270.587 280.253,271.556 279.737 C 272.526 279.222,273.669 278.800,274.096 278.800 C 274.524 278.800,275.331 278.440,275.891 278.000 C 276.450 277.560,277.219 277.200,277.600 277.200 C 277.981 277.200,278.724 276.860,279.252 276.445 C 279.780 276.029,280.882 275.505,281.700 275.279 C 282.518 275.053,283.665 274.493,284.248 274.034 C 284.831 273.575,285.573 273.200,285.896 273.200 C 286.220 273.200,287.019 272.750,287.673 272.200 C 288.327 271.650,289.090 271.200,289.369 271.200 C 289.648 271.200,290.193 270.850,290.579 270.423 C 290.966 269.995,291.816 269.528,292.469 269.385 C 293.121 269.242,293.749 268.878,293.864 268.578 C 293.979 268.277,294.462 267.909,294.937 267.761 C 295.412 267.613,296.391 266.976,297.114 266.346 C 297.837 265.716,298.674 265.200,298.975 265.200 C 299.276 265.200,299.719 264.633,299.961 263.940 C 300.558 262.226,300.583 181.489,299.986 180.374 C 299.624 179.698,257.711 179.040,257.109 179.700 C 257.059 179.755,256.924 193.473,256.809 210.185 L 256.600 240.570 255.400 241.139 C 254.740 241.452,253.565 242.026,252.789 242.415 C 252.013 242.803,250.573 243.336,249.589 243.598 C 248.605 243.860,247.530 244.304,247.200 244.584 C 246.870 244.864,245.837 245.209,244.905 245.351 C 243.972 245.492,242.532 245.948,241.705 246.363 C 240.844 246.795,238.846 247.231,237.037 247.381 C 235.297 247.526,233.317 247.950,232.637 248.322 C 230.696 249.386,206.056 249.342,204.000 248.271 C 203.230 247.870,201.198 247.397,199.485 247.220 C 197.692 247.034,196.080 246.641,195.685 246.292 C 195.308 245.959,194.190 245.558,193.200 245.401 C 192.210 245.244,190.860 244.794,190.200 244.401 C 189.540 244.008,188.434 243.567,187.741 243.420 C 187.049 243.274,186.183 242.823,185.815 242.417 C 185.448 242.011,184.520 241.561,183.753 241.418 C 182.986 241.274,182.261 240.904,182.144 240.597 C 182.026 240.290,181.331 239.841,180.600 239.600 C 179.869 239.359,179.170 238.900,179.048 238.581 C 178.925 238.261,178.574 238.000,178.268 238.000 C 177.758 238.000,176.447 237.091,173.501 234.694 C 171.233 232.849,164.000 225.662,164.000 225.253 C 164.000 225.019,163.640 224.635,163.200 224.400 C 162.760 224.165,162.400 223.760,162.400 223.500 C 162.400 223.240,162.035 222.662,161.589 222.214 C 160.626 221.249,158.418 217.947,158.407 217.458 C 158.403 217.270,157.950 216.581,157.400 215.927 C 156.850 215.273,156.400 214.466,156.400 214.132 C 156.400 213.799,156.040 213.069,155.600 212.509 C 155.160 211.950,154.800 211.200,154.800 210.843 C 154.800 210.486,154.372 209.385,153.848 208.397 C 153.325 207.409,152.765 205.790,152.605 204.800 C 152.444 203.810,152.052 202.705,151.734 202.343 C 151.408 201.974,151.012 200.270,150.828 198.445 C 150.648 196.662,150.282 194.940,150.015 194.618 C 148.499 192.791,148.504 170.803,150.021 168.975 C 150.292 168.648,150.654 166.840,150.826 164.956 C 151.020 162.825,151.369 161.276,151.750 160.855 C 152.087 160.483,152.478 159.374,152.621 158.390 C 152.763 157.405,153.226 156.107,153.649 155.504 C 154.072 154.901,154.529 153.821,154.663 153.104 C 154.797 152.387,155.224 151.440,155.611 151.000 C 155.997 150.560,156.440 149.603,156.595 148.873 C 156.749 148.143,157.120 147.452,157.418 147.338 C 157.717 147.223,158.157 146.537,158.396 145.813 C 158.635 145.089,159.183 144.177,159.615 143.786 C 160.047 143.396,160.400 142.835,160.400 142.541 C 160.400 142.247,160.760 141.782,161.200 141.507 C 161.640 141.232,162.000 140.851,162.000 140.659 C 162.000 140.261,163.385 138.485,166.000 135.528 C 168.078 133.178,174.529 127.600,175.168 127.600 C 175.406 127.600,175.600 127.433,175.600 127.230 C 175.600 126.841,178.057 125.267,180.358 124.181 C 181.105 123.829,181.973 123.284,182.286 122.971 C 182.600 122.658,183.338 122.283,183.928 122.140 C 184.518 121.996,185.413 121.558,185.919 121.167 C 186.424 120.775,187.407 120.330,188.103 120.177 C 188.799 120.025,189.826 119.580,190.384 119.190 C 190.943 118.800,192.287 118.372,193.371 118.238 C 194.455 118.105,195.665 117.703,196.060 117.346 C 196.496 116.951,197.922 116.580,199.689 116.400 C 201.290 116.238,203.590 115.766,204.800 115.352 C 207.973 114.267,230.195 114.209,232.400 115.280 C 233.170 115.654,235.229 116.152,236.976 116.386 C 238.753 116.625,240.457 117.089,240.845 117.440 C 241.226 117.785,242.317 118.172,243.269 118.299 C 244.221 118.427,245.792 118.951,246.760 119.465 C 247.727 119.979,248.738 120.400,249.006 120.400 C 249.273 120.400,249.921 120.733,250.446 121.139 C 250.971 121.545,251.862 121.991,252.426 122.128 C 252.991 122.266,253.873 122.743,254.387 123.189 C 254.902 123.635,255.520 124.003,255.761 124.007 C 256.262 124.016,259.482 126.070,260.434 126.988 C 260.782 127.325,261.186 127.600,261.332 127.600 C 261.920 127.600,267.967 132.526,270.388 134.978 C 273.741 138.374,273.783 138.367,278.800 133.600 C 281.110 131.405,283.112 129.608,283.248 129.605 C 283.385 129.602,284.735 128.341,286.248 126.803 C 287.762 125.264,289.131 124.004,289.292 124.003 C 289.452 124.001,291.283 122.335,293.359 120.300 C 295.436 118.265,298.676 115.160,300.559 113.400 C 304.584 109.637,304.665 109.265,302.000 106.763 C 300.900 105.730,300.000 104.686,300.000 104.443 C 300.000 104.199,299.836 104.000,299.636 104.000 C 299.435 104.000,298.400 103.132,297.336 102.070 C 295.707 100.447,293.343 98.446,290.873 96.600 C 290.579 96.380,289.785 95.705,289.110 95.100 C 288.434 94.495,287.644 94.000,287.355 94.000 C 287.065 94.000,286.635 93.640,286.400 93.200 C 286.165 92.760,285.732 92.400,285.440 92.400 C 285.147 92.400,284.401 92.001,283.781 91.513 C 282.504 90.509,280.970 89.616,278.500 88.439 C 277.565 87.993,276.800 87.462,276.800 87.259 C 276.800 87.055,276.195 86.775,275.455 86.637 C 274.715 86.498,273.806 86.049,273.434 85.638 C 273.063 85.228,272.227 84.785,271.576 84.655 C 270.925 84.525,269.899 84.071,269.296 83.647 C 268.693 83.222,267.480 82.753,266.600 82.605 C 265.720 82.457,264.640 82.013,264.200 81.620 C 263.760 81.227,262.513 80.791,261.429 80.651 C 260.345 80.511,259.127 80.096,258.723 79.730 C 258.318 79.364,256.984 78.928,255.758 78.762 C 254.532 78.595,253.230 78.193,252.864 77.867 C 252.491 77.534,250.668 77.090,248.701 76.852 C 246.777 76.620,244.797 76.207,244.301 75.934 C 243.805 75.662,241.060 75.217,238.200 74.944 C 235.340 74.672,232.190 74.228,231.200 73.958 C 228.428 73.201,205.619 73.109,203.000 73.844 " stroke="none" fill="#fbfbfb" fill-rule="evenodd"></path><path id="path1" d="M0.000 200.000 L 0.000 400.000 200.000 400.000 L 400.000 400.000 400.000 200.000 L 400.000 0.000 200.000 0.000 L 0.000 0.000 0.000 200.000 M238.800 73.090 C 240.010 73.523,242.578 73.996,244.507 74.141 C 246.825 74.316,248.518 74.676,249.501 75.203 C 250.319 75.641,251.531 76.001,252.194 76.002 C 253.761 76.005,256.400 76.742,256.400 77.176 C 256.400 77.362,257.506 77.709,258.858 77.947 C 260.209 78.186,261.604 78.635,261.958 78.947 C 262.311 79.258,263.360 79.637,264.288 79.790 C 265.217 79.942,266.387 80.385,266.888 80.775 C 267.390 81.165,268.450 81.604,269.245 81.750 C 270.040 81.896,271.013 82.372,271.407 82.808 C 271.801 83.244,272.511 83.600,272.984 83.600 C 273.457 83.600,274.455 84.050,275.200 84.600 C 275.945 85.150,276.835 85.600,277.178 85.600 C 277.520 85.601,278.323 86.051,278.962 86.600 C 279.601 87.150,280.359 87.600,280.647 87.600 C 280.934 87.600,281.491 87.945,281.884 88.368 C 282.278 88.790,283.082 89.256,283.671 89.404 C 284.259 89.551,285.052 90.016,285.433 90.436 C 285.813 90.856,286.356 91.200,286.639 91.200 C 286.923 91.200,287.390 91.531,287.677 91.937 C 287.965 92.342,288.650 92.909,289.200 93.198 C 290.524 93.892,291.992 95.032,294.223 97.100 C 295.232 98.035,296.130 98.800,296.218 98.800 C 296.576 98.800,301.200 103.545,301.200 103.912 C 301.200 104.129,301.573 104.404,302.030 104.524 C 302.486 104.643,302.953 105.097,303.067 105.533 C 303.181 105.969,303.616 106.416,304.035 106.525 C 304.454 106.634,304.922 107.056,305.076 107.462 C 305.229 107.868,305.590 108.438,305.878 108.729 C 306.743 109.605,306.483 110.316,304.718 111.895 C 303.792 112.723,301.687 114.704,300.039 116.298 C 298.390 117.892,296.727 119.296,296.341 119.419 C 295.956 119.541,295.530 119.992,295.394 120.420 C 295.257 120.849,295.001 121.200,294.824 121.200 C 294.648 121.200,293.574 122.100,292.439 123.200 C 291.303 124.300,290.212 125.200,290.014 125.200 C 289.816 125.200,289.540 125.560,289.400 126.000 C 289.260 126.440,288.871 126.800,288.536 126.800 C 288.200 126.800,287.837 127.138,287.729 127.551 C 287.621 127.964,287.097 128.501,286.566 128.743 C 286.035 128.985,285.600 129.457,285.600 129.791 C 285.600 130.126,285.427 130.400,285.216 130.400 C 284.799 130.400,284.438 130.721,278.857 136.035 C 273.915 140.743,273.856 140.744,268.958 136.100 C 266.927 134.175,264.692 132.150,263.991 131.600 C 263.291 131.050,262.380 130.289,261.968 129.909 C 261.556 129.529,260.584 128.953,259.809 128.630 C 259.034 128.306,258.400 127.873,258.400 127.669 C 258.400 127.464,257.873 127.079,257.229 126.812 C 256.585 126.545,255.969 126.096,255.861 125.814 C 255.752 125.532,255.022 125.181,254.237 125.033 C 253.452 124.886,252.634 124.437,252.419 124.036 C 252.193 123.613,251.380 123.203,250.482 123.060 C 249.631 122.923,248.626 122.471,248.249 122.054 C 247.872 121.637,246.811 121.176,245.892 121.029 C 244.973 120.882,243.925 120.494,243.564 120.167 C 243.203 119.840,241.758 119.389,240.353 119.164 C 238.949 118.939,237.384 118.484,236.876 118.153 C 233.695 116.079,203.767 116.113,199.697 118.195 C 198.980 118.562,197.297 119.017,195.956 119.206 C 194.614 119.396,193.207 119.832,192.828 120.175 C 192.449 120.518,191.270 120.961,190.208 121.159 C 189.146 121.357,188.120 121.801,187.927 122.144 C 187.735 122.487,186.908 122.892,186.089 123.045 C 185.270 123.197,184.375 123.640,184.100 124.029 C 183.824 124.418,183.014 124.865,182.300 125.022 C 181.585 125.179,180.765 125.643,180.477 126.054 C 180.190 126.464,179.722 126.800,179.439 126.800 C 179.155 126.800,178.490 127.177,177.961 127.638 C 177.433 128.099,176.505 128.734,175.900 129.048 C 175.295 129.363,174.800 129.792,174.800 130.003 C 174.800 130.213,174.350 130.498,173.800 130.636 C 173.250 130.774,172.800 131.143,172.800 131.456 C 172.800 131.769,172.490 132.144,172.111 132.290 C 171.365 132.576,165.200 138.650,165.200 139.099 C 165.200 139.249,164.836 139.738,164.391 140.186 C 162.981 141.605,161.200 144.090,161.200 144.639 C 161.200 144.931,160.862 145.491,160.450 145.884 C 160.037 146.278,159.566 147.050,159.404 147.600 C 159.241 148.150,158.792 148.960,158.407 149.400 C 158.021 149.840,157.578 150.740,157.423 151.400 C 157.268 152.060,156.818 152.960,156.423 153.400 C 156.029 153.840,155.600 154.897,155.470 155.750 C 155.340 156.602,154.950 157.613,154.603 157.996 C 154.257 158.379,153.791 159.821,153.569 161.200 C 153.347 162.579,152.898 164.224,152.570 164.857 C 150.644 168.582,150.688 195.625,152.625 198.582 C 152.982 199.127,153.422 200.762,153.602 202.216 C 153.782 203.670,154.205 205.164,154.542 205.536 C 154.878 205.908,155.328 206.987,155.541 207.935 C 155.754 208.882,156.200 209.959,156.533 210.329 C 156.865 210.698,157.269 211.540,157.430 212.200 C 157.590 212.860,158.144 213.909,158.661 214.531 C 159.177 215.153,159.600 215.964,159.600 216.334 C 159.600 216.705,159.960 217.232,160.400 217.507 C 160.840 217.782,161.200 218.251,161.200 218.548 C 161.200 218.846,161.740 219.769,162.400 220.600 C 163.060 221.431,163.600 222.355,163.600 222.655 C 163.600 222.955,163.867 223.200,164.192 223.200 C 164.518 223.200,164.893 223.633,165.026 224.162 C 165.159 224.691,165.626 225.218,166.064 225.333 C 166.501 225.447,166.957 225.914,167.076 226.370 C 167.196 226.827,167.454 227.200,167.650 227.200 C 167.846 227.200,169.400 228.562,171.103 230.227 C 175.699 234.721,175.790 234.800,176.293 234.800 C 176.549 234.800,177.244 235.250,177.838 235.800 C 178.431 236.350,179.138 236.800,179.409 236.800 C 179.680 236.800,180.128 237.072,180.404 237.405 C 180.680 237.737,181.692 238.357,182.653 238.782 C 183.614 239.207,184.400 239.745,184.400 239.978 C 184.400 240.210,184.772 240.400,185.226 240.400 C 186.158 240.400,187.600 241.087,188.200 241.818 C 188.420 242.086,189.378 242.421,190.329 242.562 C 191.280 242.703,192.540 243.156,193.129 243.569 C 193.718 243.982,195.168 244.422,196.351 244.547 C 197.533 244.672,198.953 245.070,199.505 245.432 C 200.167 245.866,202.009 246.210,204.920 246.444 C 207.347 246.639,209.977 246.978,210.766 247.197 C 212.550 247.693,226.207 247.730,227.126 247.242 C 227.497 247.045,230.015 246.683,232.721 246.437 C 235.697 246.167,238.000 245.756,238.547 245.398 C 239.045 245.072,240.340 244.691,241.426 244.551 C 242.512 244.411,243.962 243.960,244.648 243.548 C 245.335 243.136,246.775 242.680,247.848 242.535 C 249.012 242.378,250.001 241.988,250.298 241.571 C 250.572 241.186,251.472 240.754,252.298 240.611 C 253.124 240.468,254.198 240.023,254.685 239.623 L 255.571 238.895 255.685 208.948 C 255.748 192.476,255.954 178.685,256.143 178.300 C 256.732 177.097,300.745 177.234,301.838 178.442 C 303.073 179.806,303.236 262.413,302.007 264.076 C 301.563 264.676,301.200 265.364,301.200 265.605 C 301.200 265.845,300.660 266.230,300.000 266.460 C 299.340 266.690,298.800 267.044,298.800 267.246 C 298.800 267.448,298.125 267.925,297.300 268.306 C 296.475 268.688,295.565 269.315,295.277 269.700 C 294.990 270.085,294.522 270.400,294.239 270.400 C 293.955 270.400,293.302 270.765,292.787 271.211 C 292.273 271.657,291.391 272.136,290.826 272.276 C 290.262 272.415,289.575 272.846,289.300 273.233 C 289.024 273.620,288.214 274.065,287.500 274.222 C 286.785 274.379,285.970 274.836,285.689 275.238 C 285.407 275.639,284.559 276.084,283.803 276.226 C 283.047 276.368,282.221 276.734,281.968 277.039 C 281.714 277.344,280.798 277.785,279.932 278.018 C 279.066 278.251,278.007 278.793,277.579 279.221 C 277.151 279.649,276.284 280.000,275.654 280.000 C 275.024 280.000,274.036 280.371,273.460 280.824 C 272.884 281.277,271.735 281.755,270.906 281.885 C 270.078 282.016,268.992 282.438,268.492 282.825 C 267.993 283.211,266.651 283.655,265.510 283.812 C 264.369 283.969,262.977 284.418,262.418 284.810 C 261.858 285.202,260.435 285.639,259.256 285.781 C 258.077 285.923,256.689 286.316,256.172 286.655 C 255.655 286.994,253.920 287.436,252.317 287.637 C 250.714 287.838,248.779 288.298,248.019 288.659 C 247.253 289.023,244.933 289.445,242.818 289.606 C 240.316 289.797,238.517 290.156,237.600 290.648 C 235.463 291.796,196.797 291.795,194.000 290.648 C 193.010 290.242,190.621 289.768,188.691 289.595 C 186.727 289.418,184.770 289.011,184.249 288.669 C 183.736 288.333,182.051 287.882,180.504 287.668 C 178.957 287.454,177.266 287.005,176.746 286.670 C 176.226 286.336,174.943 285.938,173.895 285.785 C 172.848 285.633,171.588 285.192,171.095 284.805 C 170.603 284.418,169.417 283.970,168.460 283.809 C 167.503 283.648,166.428 283.175,166.071 282.758 C 165.714 282.341,164.946 282.000,164.365 282.000 C 163.784 282.000,162.836 281.629,162.260 281.176 C 161.684 280.723,160.602 280.253,159.856 280.132 C 159.110 280.011,158.000 279.481,157.388 278.956 C 156.776 278.430,156.058 278.000,155.792 278.000 C 155.526 278.000,154.864 277.651,154.322 277.225 C 153.780 276.798,152.843 276.326,152.240 276.174 C 151.637 276.023,150.933 275.562,150.676 275.150 C 150.418 274.737,149.905 274.400,149.534 274.400 C 149.164 274.400,148.351 273.995,147.728 273.500 C 147.104 273.005,146.235 272.372,145.797 272.094 C 145.359 271.816,144.460 271.245,143.800 270.826 C 142.260 269.847,140.927 268.826,139.747 267.722 C 139.230 267.239,138.540 266.694,138.213 266.512 C 137.052 265.861,133.834 262.941,129.715 258.800 C 124.197 253.252,123.600 252.618,123.600 252.303 C 123.600 252.059,122.841 251.169,120.772 248.986 C 120.347 248.538,120.000 247.962,120.000 247.706 C 120.000 247.449,119.749 247.096,119.443 246.920 C 119.137 246.744,118.552 246.042,118.143 245.360 C 117.034 243.510,115.935 241.897,115.172 241.000 C 114.798 240.560,114.355 239.750,114.189 239.200 C 114.022 238.650,113.551 237.965,113.143 237.677 C 112.734 237.390,112.400 236.840,112.400 236.455 C 112.400 236.070,111.950 235.145,111.400 234.400 C 110.850 233.655,110.400 232.744,110.400 232.376 C 110.400 232.009,110.066 231.279,109.658 230.754 C 109.250 230.229,108.701 229.139,108.438 228.332 C 108.174 227.525,107.712 226.659,107.411 226.409 C 107.109 226.159,106.736 225.207,106.582 224.294 C 106.428 223.382,105.982 222.177,105.591 221.617 C 105.200 221.058,104.763 219.795,104.621 218.810 C 104.478 217.826,104.089 216.720,103.756 216.352 C 103.423 215.984,102.997 214.629,102.809 213.341 C 102.620 212.054,102.179 210.436,101.827 209.747 C 101.476 209.058,101.025 206.808,100.825 204.747 C 100.626 202.686,100.137 200.280,99.739 199.400 C 98.653 196.997,98.642 167.172,99.726 164.400 C 100.113 163.410,100.595 160.973,100.797 158.985 C 101.003 156.954,101.518 154.587,101.973 153.585 C 102.418 152.603,102.786 151.253,102.791 150.585 C 102.796 149.916,103.164 148.656,103.610 147.785 C 104.055 146.913,104.523 145.480,104.650 144.600 C 104.776 143.720,105.199 142.543,105.590 141.984 C 105.980 141.426,106.431 140.346,106.593 139.584 C 106.754 138.823,107.206 137.660,107.598 137.000 C 107.989 136.340,108.444 135.350,108.609 134.800 C 108.775 134.250,109.245 133.371,109.655 132.846 C 110.065 132.321,110.400 131.591,110.400 131.224 C 110.400 130.856,110.850 129.945,111.400 129.200 C 111.950 128.455,112.400 127.530,112.400 127.145 C 112.400 126.760,112.747 126.202,113.172 125.905 C 113.596 125.607,114.069 124.865,114.222 124.254 C 114.375 123.643,114.838 122.933,115.250 122.676 C 115.663 122.418,116.000 121.995,116.000 121.734 C 116.000 121.474,116.450 120.727,117.000 120.073 C 117.550 119.419,118.000 118.704,118.000 118.484 C 118.000 118.264,118.447 117.660,118.993 117.142 C 119.539 116.624,119.989 116.026,119.993 115.814 C 119.997 115.602,120.347 115.062,120.772 114.614 C 122.799 112.476,123.600 111.544,123.600 111.325 C 123.600 110.654,133.356 100.931,134.343 100.618 C 134.814 100.468,135.200 100.088,135.200 99.773 C 135.200 99.458,135.374 99.200,135.586 99.200 C 135.799 99.200,136.500 98.705,137.145 98.100 C 137.791 97.495,138.742 96.679,139.259 96.286 C 139.777 95.894,140.900 95.039,141.755 94.386 C 142.610 93.734,143.549 93.200,143.841 93.200 C 144.133 93.200,144.558 92.852,144.786 92.427 C 145.013 92.002,145.577 91.534,146.039 91.388 C 146.501 91.241,147.217 90.783,147.629 90.371 C 148.042 89.958,148.879 89.497,149.490 89.346 C 150.100 89.194,150.821 88.760,151.091 88.381 C 151.361 88.002,152.081 87.566,152.691 87.413 C 153.301 87.260,154.122 86.790,154.516 86.368 C 154.909 85.945,155.549 85.600,155.938 85.600 C 156.327 85.600,157.255 85.150,158.000 84.600 C 158.745 84.050,159.656 83.600,160.024 83.600 C 160.391 83.600,161.121 83.263,161.646 82.852 C 162.171 82.441,163.223 81.968,163.984 81.802 C 164.746 81.636,165.826 81.179,166.384 80.787 C 166.943 80.395,168.110 79.953,168.979 79.804 C 169.847 79.656,170.966 79.213,171.465 78.820 C 171.968 78.424,173.448 77.985,174.786 77.833 C 176.114 77.683,177.200 77.418,177.200 77.244 C 177.200 76.682,179.195 76.000,180.841 76.000 C 181.722 76.000,183.244 75.635,184.223 75.190 C 185.277 74.709,187.533 74.234,189.764 74.023 C 191.834 73.827,193.948 73.435,194.463 73.151 C 197.010 71.745,234.893 71.694,238.800 73.090 " stroke="none" fill="#6464ac" fill-rule="evenodd"></path><path id="path2" d="M210.500 72.699 C 213.965 72.766,219.635 72.766,223.100 72.699 C 226.565 72.633,223.730 72.578,216.800 72.578 C 209.870 72.578,207.035 72.633,210.500 72.699 M197.600 73.417 C 196.390 73.695,194.860 73.954,194.200 73.993 C 193.540 74.032,193.223 74.153,193.496 74.264 C 193.769 74.374,195.209 74.247,196.696 73.983 C 198.183 73.718,200.480 73.371,201.800 73.212 L 204.200 72.922 202.000 72.916 C 200.790 72.913,198.810 73.138,197.600 73.417 M231.800 73.163 C 237.062 73.997,237.430 74.032,236.464 73.609 C 235.948 73.383,234.238 73.120,232.664 73.023 C 230.227 72.873,230.098 72.894,231.800 73.163 M238.305 74.283 C 238.802 74.379,239.522 74.375,239.905 74.275 C 240.287 74.175,239.880 74.096,239.000 74.101 C 238.120 74.105,237.807 74.187,238.305 74.283 M189.700 74.676 C 190.085 74.776,190.715 74.776,191.100 74.676 C 191.485 74.575,191.170 74.493,190.400 74.493 C 189.630 74.493,189.315 74.575,189.700 74.676 M242.100 74.676 C 242.485 74.776,243.115 74.776,243.500 74.676 C 243.885 74.575,243.570 74.493,242.800 74.493 C 242.030 74.493,241.715 74.575,242.100 74.676 M186.400 75.400 C 185.630 75.697,185.294 75.953,185.654 75.970 C 186.014 75.986,186.914 75.737,187.654 75.416 C 189.341 74.683,188.295 74.670,186.400 75.400 M246.000 75.421 C 246.990 75.733,247.980 75.977,248.200 75.963 C 248.900 75.921,245.834 74.861,245.000 74.857 C 244.560 74.855,245.010 75.109,246.000 75.421 M179.000 77.178 C 176.929 78.158,177.256 78.165,180.000 77.200 C 181.210 76.774,181.840 76.425,181.400 76.424 C 180.960 76.422,179.880 76.762,179.000 77.178 M253.800 77.408 C 255.120 77.931,256.560 78.364,257.000 78.371 C 257.440 78.378,256.540 77.938,255.000 77.393 C 251.452 76.139,250.624 76.149,253.800 77.408 M172.406 79.223 C 170.571 80.246,171.384 80.228,173.400 79.200 C 174.263 78.760,174.706 78.410,174.385 78.423 C 174.063 78.436,173.173 78.796,172.406 79.223 M259.544 79.209 C 260.503 79.644,261.493 79.994,261.744 79.986 C 262.404 79.967,259.115 78.428,258.400 78.422 C 258.070 78.420,258.585 78.774,259.544 79.209 M162.806 83.018 C 161.820 83.558,161.225 84.000,161.485 84.000 C 161.745 84.000,162.804 83.550,163.838 83.000 C 164.873 82.450,165.467 82.008,165.160 82.018 C 164.852 82.027,163.793 82.477,162.806 83.018 M270.109 83.200 C 270.669 83.640,271.257 84.000,271.417 84.000 C 271.577 84.000,271.250 83.640,270.691 83.200 C 270.131 82.760,269.543 82.400,269.383 82.400 C 269.223 82.400,269.550 82.760,270.109 83.200 M159.144 84.824 L 158.200 85.647 159.400 84.945 C 160.979 84.020,161.003 84.000,160.511 84.000 C 160.279 84.000,159.664 84.371,159.144 84.824 M273.052 84.576 C 273.741 84.876,274.426 85.319,274.576 85.560 C 274.725 85.802,275.152 85.986,275.524 85.968 C 276.076 85.943,276.090 85.895,275.600 85.709 C 275.270 85.583,274.571 85.147,274.046 84.740 C 273.521 84.333,272.801 84.007,272.446 84.016 C 272.091 84.024,272.363 84.276,273.052 84.576 M155.091 86.800 C 154.531 87.240,153.922 87.603,153.737 87.607 C 153.258 87.618,149.799 90.000,150.262 90.000 C 150.472 90.000,151.255 89.550,152.000 89.000 C 152.745 88.450,153.492 88.000,153.660 88.000 C 153.827 88.000,154.628 87.550,155.438 87.000 C 156.249 86.450,156.731 86.000,156.510 86.000 C 156.289 86.000,155.650 86.360,155.091 86.800 M277.600 87.000 C 278.345 87.550,279.126 88.000,279.334 88.000 C 279.541 88.000,279.049 87.550,278.238 87.000 C 277.428 86.450,276.647 86.000,276.505 86.000 C 276.362 86.000,276.855 86.450,277.600 87.000 M284.769 91.300 C 288.300 93.674,288.822 94.041,290.608 95.400 C 293.074 97.277,293.641 97.743,294.503 98.600 C 295.109 99.203,295.219 99.232,294.949 98.720 C 294.632 98.118,290.769 94.998,288.000 93.106 C 287.450 92.730,286.100 91.790,285.000 91.017 C 283.900 90.245,282.829 89.609,282.620 89.606 C 282.412 89.603,283.379 90.365,284.769 91.300 M148.000 91.000 C 147.255 91.550,146.815 91.999,147.022 91.998 C 147.428 91.996,149.949 90.038,149.578 90.014 C 149.455 90.006,148.745 90.450,148.000 91.000 M142.800 94.421 C 137.134 98.907,131.630 103.702,129.000 106.442 C 124.952 110.660,125.304 110.418,130.274 105.567 C 133.842 102.083,139.165 97.551,143.035 94.700 C 143.857 94.095,144.365 93.606,144.164 93.614 C 143.964 93.622,143.350 93.985,142.800 94.421 M298.623 102.391 C 300.370 104.146,301.930 105.586,302.089 105.591 C 302.247 105.596,300.926 104.160,299.151 102.400 C 297.377 100.640,295.817 99.200,295.685 99.200 C 295.553 99.200,296.875 100.636,298.623 102.391 M304.846 109.608 C 304.801 110.208,299.120 115.955,296.439 118.113 C 295.679 118.725,294.794 119.625,294.473 120.113 L 293.890 121.000 294.845 120.128 C 295.370 119.648,297.240 117.901,299.000 116.245 C 300.760 114.589,302.895 112.630,303.744 111.893 C 304.828 110.951,305.229 110.320,305.090 109.776 C 304.966 109.288,304.876 109.225,304.846 109.608 M122.209 113.900 C 121.659 114.725,120.906 115.850,120.536 116.400 C 120.166 116.950,120.427 116.770,121.116 116.000 C 121.804 115.230,122.375 114.465,122.384 114.300 C 122.393 114.135,122.760 113.640,123.200 113.200 C 123.640 112.760,123.822 112.400,123.605 112.400 C 123.388 112.400,122.760 113.075,122.209 113.900 M206.800 115.821 C 205.810 116.133,204.550 116.411,204.000 116.440 C 203.214 116.482,203.163 116.535,203.765 116.688 C 204.186 116.796,205.626 116.600,206.965 116.254 C 208.304 115.908,209.850 115.554,210.400 115.467 C 211.106 115.355,210.989 115.301,210.000 115.281 C 209.230 115.266,207.790 115.509,206.800 115.821 M229.400 115.988 C 230.940 116.399,232.650 116.738,233.200 116.741 C 234.490 116.749,230.754 115.755,228.400 115.463 C 227.015 115.292,227.245 115.413,229.400 115.988 M197.200 117.800 C 195.894 118.547,196.351 118.555,198.054 117.816 C 198.794 117.494,199.130 117.231,198.800 117.230 C 198.470 117.229,197.750 117.486,197.200 117.800 M238.800 118.000 C 239.790 118.415,240.870 118.755,241.200 118.755 C 241.530 118.755,240.990 118.415,240.000 118.000 C 239.010 117.585,237.930 117.245,237.600 117.245 C 237.270 117.245,237.810 117.585,238.800 118.000 M191.024 119.813 C 190.596 120.136,190.427 120.400,190.647 120.400 C 190.867 120.400,191.396 120.136,191.824 119.813 C 192.251 119.490,192.420 119.225,192.200 119.225 C 191.980 119.225,191.451 119.490,191.024 119.813 M244.644 119.775 C 245.095 120.092,245.990 120.464,246.633 120.603 C 247.508 120.792,247.364 120.648,246.056 120.027 C 244.018 119.060,243.487 118.966,244.644 119.775 M117.462 120.331 C 116.733 121.137,116.572 121.788,117.198 121.401 C 117.615 121.143,118.539 119.600,118.276 119.600 C 118.192 119.600,117.826 119.929,117.462 120.331 M186.800 121.636 C 186.136 122.179,186.069 122.315,186.600 122.040 C 187.905 121.366,188.628 120.812,188.200 120.815 C 187.980 120.817,187.350 121.186,186.800 121.636 M248.400 121.220 C 249.787 122.161,250.578 122.435,249.600 121.636 C 249.050 121.186,248.420 120.817,248.200 120.815 C 247.980 120.813,248.070 120.996,248.400 121.220 M115.454 123.522 C 114.874 124.358,114.400 125.193,114.400 125.377 C 114.400 125.664,115.545 124.126,116.541 122.500 C 117.247 121.348,116.426 122.120,115.454 123.522 M251.200 122.682 C 251.530 122.802,252.385 123.252,253.100 123.683 C 253.815 124.113,254.400 124.375,254.400 124.265 C 254.400 123.910,251.724 122.399,251.153 122.432 C 250.729 122.456,250.740 122.514,251.200 122.682 M182.800 123.636 C 182.136 124.179,182.069 124.315,182.600 124.040 C 183.905 123.366,184.628 122.812,184.200 122.815 C 183.980 122.817,183.350 123.186,182.800 123.636 M179.395 125.470 C 173.107 129.686,172.814 129.929,167.311 135.476 C 165.062 137.743,162.938 140.183,162.592 140.899 C 162.076 141.962,162.071 142.054,162.560 141.400 C 165.845 137.013,169.195 133.587,173.656 130.054 C 175.777 128.374,178.476 126.415,179.654 125.700 C 180.832 124.985,181.614 124.400,181.393 124.400 C 181.172 124.400,180.273 124.881,179.395 125.470 M256.529 125.496 C 256.930 125.953,257.785 126.545,258.429 126.812 C 259.073 127.079,259.600 127.426,259.600 127.584 C 259.600 127.742,260.043 128.073,260.584 128.320 C 261.126 128.567,261.891 129.054,262.284 129.402 C 262.678 129.751,263.810 130.657,264.800 131.417 C 265.790 132.176,267.026 133.203,267.546 133.699 L 268.492 134.600 267.800 133.500 C 267.419 132.895,266.966 132.400,266.792 132.400 C 266.520 132.400,264.398 130.800,262.400 129.089 C 262.070 128.806,260.990 128.057,260.000 127.425 C 259.010 126.792,257.660 125.912,257.000 125.470 L 255.800 124.664 256.529 125.496 M282.993 130.845 C 280.461 132.935,274.518 138.598,275.339 138.138 C 275.679 137.948,277.642 136.231,279.700 134.324 C 281.758 132.416,283.883 130.489,284.421 130.041 C 284.960 129.593,285.307 129.221,285.193 129.213 C 285.079 129.206,284.089 129.940,282.993 130.845 M111.451 130.500 C 111.139 130.995,110.776 131.850,110.646 132.400 C 110.496 133.030,110.643 132.881,111.043 132.000 C 111.392 131.230,111.862 130.375,112.088 130.100 C 112.313 129.825,112.390 129.600,112.258 129.600 C 112.126 129.600,111.763 130.005,111.451 130.500 M109.372 134.587 C 109.016 135.130,108.787 135.736,108.862 135.934 C 108.938 136.132,109.292 135.688,109.649 134.947 C 110.414 133.362,110.284 133.194,109.372 134.587 M268.800 134.552 C 268.800 134.906,272.375 138.563,272.530 138.369 C 272.605 138.276,271.796 137.327,270.733 136.259 C 269.670 135.192,268.800 134.424,268.800 134.552 M107.879 137.974 C 106.904 139.625,107.053 140.051,108.057 138.483 C 108.520 137.759,108.823 137.090,108.729 136.996 C 108.635 136.902,108.252 137.342,107.879 137.974 M105.900 143.055 C 105.515 143.813,105.200 144.644,105.200 144.901 C 105.200 145.158,105.561 144.660,106.003 143.794 C 106.445 142.928,106.760 142.097,106.703 141.948 C 106.646 141.799,106.285 142.297,105.900 143.055 M160.201 144.132 C 158.674 146.771,158.491 147.251,159.489 146.000 C 160.402 144.856,161.723 142.390,161.528 142.195 C 161.456 142.123,160.859 142.995,160.201 144.132 M157.755 148.212 C 157.390 148.769,157.170 149.304,157.267 149.400 C 157.363 149.497,157.758 149.041,158.144 148.388 C 158.998 146.942,158.681 146.799,157.755 148.212 M104.065 148.617 C 103.395 150.088,103.523 150.402,104.247 149.065 C 104.586 148.440,104.788 147.854,104.696 147.763 C 104.605 147.671,104.321 148.056,104.065 148.617 M155.772 152.187 C 155.416 152.730,155.187 153.336,155.262 153.534 C 155.338 153.732,155.692 153.288,156.049 152.547 C 156.814 150.962,156.684 150.794,155.772 152.187 M102.846 153.086 C 102.821 153.573,102.517 154.805,102.171 155.824 C 101.825 156.842,101.620 157.753,101.714 157.847 C 102.022 158.155,103.269 153.649,103.079 152.916 C 102.932 152.350,102.883 152.385,102.846 153.086 M154.032 156.339 C 153.379 157.560,153.514 157.900,154.241 156.863 C 154.593 156.360,154.788 155.854,154.673 155.740 C 154.559 155.625,154.270 155.895,154.032 156.339 M101.293 159.600 C 101.293 160.370,101.375 160.685,101.476 160.300 C 101.576 159.915,101.576 159.285,101.476 158.900 C 101.375 158.515,101.293 158.830,101.293 159.600 M152.229 162.029 C 151.831 163.134,151.583 164.116,151.677 164.210 C 151.771 164.305,152.174 163.477,152.571 162.371 C 152.969 161.266,153.217 160.284,153.123 160.190 C 153.029 160.095,152.626 160.923,152.229 162.029 M100.893 163.600 C 100.893 164.370,100.975 164.685,101.076 164.300 C 101.176 163.915,101.176 163.285,101.076 162.900 C 100.975 162.515,100.893 162.830,100.893 163.600 M100.223 166.700 C 100.077 167.525,99.899 169.820,99.826 171.800 L 99.695 175.400 100.024 172.000 C 100.205 170.130,100.473 167.835,100.619 166.900 C 100.946 164.804,100.589 164.624,100.223 166.700 M151.301 166.600 C 151.305 167.480,151.387 167.793,151.483 167.295 C 151.579 166.798,151.575 166.078,151.475 165.695 C 151.375 165.313,151.296 165.720,151.301 166.600 M150.358 171.491 C 149.345 177.133,149.939 196.195,151.091 195.042 C 151.187 194.946,150.981 193.076,150.633 190.886 C 150.285 188.696,150.000 184.607,150.000 181.800 C 150.000 178.993,150.285 174.904,150.633 172.714 C 151.383 167.995,151.162 167.012,150.358 171.491 M99.362 181.800 C 99.362 185.320,99.424 186.706,99.498 184.881 C 99.572 183.056,99.572 180.176,99.497 178.481 C 99.422 176.786,99.361 178.280,99.362 181.800 M256.880 178.480 C 256.616 178.744,256.411 179.239,256.425 179.580 C 256.441 179.960,256.591 179.852,256.812 179.300 L 257.174 178.400 278.564 178.400 L 299.955 178.400 300.577 179.289 C 301.366 180.416,301.541 262.413,300.758 264.132 C 300.516 264.665,299.258 265.786,297.964 266.623 C 296.671 267.460,295.682 268.216,295.768 268.302 C 296.145 268.679,300.749 265.088,301.159 264.097 C 302.081 261.867,301.564 179.255,300.624 178.568 C 299.569 177.797,257.647 177.713,256.880 178.480 M99.815 191.800 C 99.881 193.780,100.121 196.120,100.348 197.000 L 100.760 198.600 100.557 196.800 C 100.445 195.810,100.205 193.470,100.024 191.600 L 99.695 188.200 99.815 191.800 M151.301 197.000 C 151.305 197.880,151.387 198.193,151.483 197.695 C 151.579 197.198,151.575 196.478,151.475 196.095 C 151.375 195.713,151.296 196.120,151.301 197.000 M100.893 200.000 C 100.893 200.770,100.975 201.085,101.076 200.700 C 101.176 200.315,101.176 199.685,101.076 199.300 C 100.975 198.915,100.893 199.230,100.893 200.000 M151.634 199.200 C 151.637 199.939,152.722 202.377,152.768 201.746 C 152.785 201.496,152.537 200.686,152.216 199.946 C 151.894 199.206,151.632 198.870,151.634 199.200 M101.293 204.000 C 101.293 204.770,101.375 205.085,101.476 204.700 C 101.576 204.315,101.576 203.685,101.476 203.300 C 101.375 202.915,101.293 203.230,101.293 204.000 M101.646 206.000 C 101.668 206.898,102.734 209.504,102.770 208.746 C 102.786 208.386,102.537 207.486,102.216 206.746 C 101.894 206.006,101.638 205.670,101.646 206.000 M153.600 206.115 C 153.600 206.179,153.960 206.937,154.400 207.800 C 154.840 208.663,155.200 209.142,155.200 208.865 C 155.200 208.286,154.075 206.000,153.790 206.000 C 153.685 206.000,153.600 206.052,153.600 206.115 M155.204 209.800 C 155.205 210.020,155.563 210.740,156.000 211.400 C 157.036 212.964,157.037 212.408,156.001 210.710 C 155.562 209.989,155.204 209.580,155.204 209.800 M103.628 213.800 C 103.628 214.020,103.886 214.650,104.200 215.200 C 104.514 215.750,104.772 216.020,104.772 215.800 C 104.772 215.580,104.514 214.950,104.200 214.400 C 103.886 213.850,103.628 213.580,103.628 213.800 M157.200 214.105 C 157.200 214.247,157.605 214.974,158.100 215.719 C 158.595 216.465,159.450 217.836,160.000 218.767 C 162.290 222.643,168.803 229.908,173.400 233.714 C 174.500 234.624,173.347 233.398,170.838 230.988 C 166.041 226.381,162.209 221.853,160.200 218.418 C 158.811 216.043,157.200 213.727,157.200 214.105 M105.226 218.800 C 105.233 219.387,106.750 222.449,106.783 221.944 C 106.792 221.803,106.444 220.903,106.009 219.944 C 105.574 218.985,105.221 218.470,105.226 218.800 M107.205 224.200 C 107.205 224.420,107.563 225.140,108.000 225.800 C 108.437 226.460,108.795 226.820,108.795 226.600 C 108.795 226.380,108.437 225.660,108.000 225.000 C 107.563 224.340,107.205 223.980,107.205 224.200 M108.825 227.656 C 108.811 228.016,109.115 228.655,109.500 229.075 C 109.885 229.494,110.072 229.640,109.916 229.397 C 109.760 229.155,109.456 228.517,109.241 227.978 C 108.994 227.360,108.841 227.241,108.825 227.656 M110.433 230.513 C 110.368 231.137,111.532 233.510,112.059 233.828 C 112.485 234.085,112.502 234.031,112.139 233.577 C 111.885 233.260,111.405 232.370,111.071 231.600 C 110.738 230.830,110.451 230.341,110.433 230.513 M112.800 235.705 C 112.800 235.847,113.205 236.574,113.700 237.319 C 114.195 238.065,115.050 239.439,115.600 240.374 C 116.150 241.309,117.012 242.552,117.515 243.137 L 118.429 244.200 117.515 242.763 C 117.012 241.972,116.150 240.573,115.600 239.653 C 114.322 237.514,112.800 235.368,112.800 235.705 M176.561 235.936 C 176.920 236.518,181.186 239.347,181.392 239.141 C 181.480 239.054,180.887 238.554,180.076 238.030 C 179.264 237.506,178.079 236.721,177.443 236.285 C 176.806 235.849,176.409 235.692,176.561 235.936 M182.200 239.555 C 182.778 240.136,188.078 242.855,188.266 242.667 C 188.353 242.580,186.934 241.753,185.112 240.830 C 183.291 239.907,181.980 239.333,182.200 239.555 M251.000 242.000 C 249.436 243.036,249.992 243.037,251.690 242.001 C 252.411 241.562,252.820 241.204,252.600 241.204 C 252.380 241.205,251.660 241.563,251.000 242.000 M189.800 243.290 C 190.460 243.525,191.355 243.961,191.789 244.258 C 192.223 244.556,192.943 244.785,193.389 244.766 C 194.070 244.737,194.040 244.680,193.200 244.412 C 192.650 244.236,191.660 243.803,191.000 243.449 C 190.340 243.095,189.530 242.818,189.200 242.834 C 188.870 242.850,189.140 243.055,189.800 243.290 M246.176 243.787 C 245.749 244.110,245.580 244.375,245.800 244.375 C 246.020 244.375,246.549 244.110,246.976 243.787 C 247.404 243.464,247.573 243.200,247.353 243.200 C 247.133 243.200,246.604 243.464,246.176 243.787 M118.647 244.979 C 118.778 245.321,119.008 245.600,119.157 245.600 C 119.306 245.600,119.761 246.165,120.169 246.855 C 120.577 247.546,121.201 248.434,121.555 248.828 C 121.910 249.223,122.740 250.258,123.400 251.128 C 124.060 251.998,124.960 252.933,125.400 253.205 C 125.898 253.513,125.747 253.204,125.000 252.386 C 122.923 250.112,122.641 249.763,120.848 247.244 C 119.060 244.732,118.221 243.869,118.647 244.979 M196.800 245.769 C 197.350 246.101,198.070 246.373,198.400 246.374 C 199.203 246.376,198.252 245.816,196.800 245.432 L 195.800 245.167 196.800 245.769 M239.800 245.814 C 239.140 246.117,238.870 246.366,239.200 246.368 C 239.530 246.370,240.250 246.114,240.800 245.800 C 242.065 245.077,241.389 245.087,239.800 245.814 M199.700 246.676 C 200.085 246.776,200.715 246.776,201.100 246.676 C 201.485 246.575,201.170 246.493,200.400 246.493 C 199.630 246.493,199.315 246.575,199.700 246.676 M236.500 246.676 C 236.885 246.776,237.515 246.776,237.900 246.676 C 238.285 246.575,237.970 246.493,237.200 246.493 C 236.430 246.493,236.115 246.575,236.500 246.676 M231.400 247.223 C 230.740 247.410,229.507 247.674,228.659 247.808 C 227.812 247.942,227.193 248.126,227.284 248.217 C 227.445 248.378,230.790 247.844,233.600 247.209 C 234.964 246.900,234.969 246.892,233.800 246.887 C 233.140 246.884,232.060 247.035,231.400 247.223 M206.600 247.824 C 207.920 248.121,209.450 248.358,210.000 248.349 C 210.550 248.340,209.920 248.090,208.600 247.792 C 207.280 247.495,205.750 247.258,205.200 247.267 C 204.650 247.275,205.280 247.526,206.600 247.824 M131.200 259.200 C 133.976 261.950,136.830 264.650,137.542 265.200 C 138.254 265.750,139.305 266.605,139.877 267.100 C 140.449 267.595,140.981 268.000,141.058 268.000 C 141.510 268.000,140.882 267.395,138.100 265.150 C 136.395 263.774,133.009 260.748,130.576 258.424 C 126.751 254.772,126.835 254.877,131.200 259.200 M142.200 268.653 C 143.540 269.944,149.934 274.199,150.173 273.959 C 150.261 273.872,149.431 273.260,148.328 272.600 C 147.226 271.940,145.486 270.760,144.462 269.978 C 142.180 268.236,141.126 267.618,142.200 268.653 M294.596 268.806 C 294.459 269.029,293.683 269.576,292.873 270.021 C 292.063 270.466,290.680 271.267,289.800 271.801 C 288.920 272.335,287.573 273.068,286.807 273.430 C 285.157 274.210,283.309 275.600,283.922 275.600 C 284.159 275.600,284.473 275.405,284.620 275.167 C 284.768 274.929,285.633 274.381,286.544 273.950 C 287.455 273.519,288.920 272.730,289.800 272.198 C 290.680 271.665,292.042 270.876,292.827 270.444 C 294.146 269.718,295.594 268.400,295.073 268.400 C 294.949 268.400,294.734 268.583,294.596 268.806 M155.200 276.857 C 156.410 277.539,157.888 278.435,158.484 278.848 C 159.080 279.262,159.800 279.597,160.084 279.594 C 160.368 279.591,160.207 279.366,159.727 279.094 C 159.246 278.822,157.665 277.925,156.213 277.100 C 154.761 276.275,153.444 275.604,153.286 275.609 C 153.129 275.614,153.990 276.175,155.200 276.857 M280.200 276.800 C 279.540 277.237,279.180 277.595,279.400 277.595 C 279.620 277.595,280.340 277.237,281.000 276.800 C 281.660 276.363,282.020 276.005,281.800 276.005 C 281.580 276.005,280.860 276.363,280.200 276.800 M162.485 280.600 C 163.518 281.150,164.578 281.600,164.841 281.600 C 165.104 281.600,164.473 281.150,163.438 280.600 C 162.404 280.050,161.344 279.600,161.082 279.600 C 160.820 279.600,161.452 280.050,162.485 280.600 M271.237 280.630 C 270.267 281.163,269.691 281.600,269.955 281.600 C 270.220 281.600,271.282 281.150,272.315 280.600 C 273.348 280.050,273.925 279.613,273.597 279.630 C 273.269 279.646,272.207 280.096,271.237 280.630 M166.600 282.400 C 167.260 282.837,168.067 283.196,168.394 283.197 C 168.721 283.199,168.316 282.840,167.496 282.400 C 165.578 281.372,165.048 281.372,166.600 282.400 M266.600 282.422 C 265.720 282.838,265.270 283.176,265.600 283.173 C 265.930 283.169,266.830 282.822,267.600 282.400 C 269.396 281.417,268.692 281.432,266.600 282.422 M172.000 284.400 C 172.770 284.822,173.670 285.170,174.000 285.174 C 174.330 285.179,173.815 284.826,172.856 284.391 C 170.650 283.390,170.165 283.395,172.000 284.400 M261.896 283.837 C 261.766 283.967,260.971 284.319,260.130 284.619 C 259.280 284.923,258.955 285.165,259.400 285.166 C 260.228 285.166,263.336 283.647,262.567 283.617 C 262.328 283.608,262.027 283.707,261.896 283.837 M177.746 286.202 C 178.376 286.531,179.096 286.794,179.346 286.786 C 180.000 286.765,177.917 285.631,177.200 285.617 C 176.870 285.610,177.116 285.874,177.746 286.202 M253.000 286.436 C 251.900 286.837,251.360 287.163,251.800 287.160 C 252.240 287.157,253.410 286.815,254.400 286.400 C 256.682 285.442,255.654 285.469,253.000 286.436 M248.500 287.476 C 248.885 287.576,249.515 287.576,249.900 287.476 C 250.285 287.375,249.970 287.293,249.200 287.293 C 248.430 287.293,248.115 287.375,248.500 287.476 M185.546 288.216 C 186.286 288.537,187.186 288.792,187.546 288.782 C 187.906 288.773,187.480 288.505,186.600 288.188 C 184.527 287.442,183.806 287.460,185.546 288.216 M245.200 288.225 C 244.318 288.559,244.096 288.757,244.600 288.759 C 245.040 288.762,245.940 288.517,246.600 288.214 C 248.127 287.515,247.055 287.523,245.200 288.225 M241.505 289.083 C 242.002 289.179,242.722 289.175,243.105 289.075 C 243.487 288.975,243.080 288.896,242.200 288.901 C 241.320 288.905,241.007 288.987,241.505 289.083 M193.400 289.612 C 198.017 290.513,200.475 290.840,201.481 290.688 C 202.471 290.539,202.438 290.513,201.200 290.460 C 200.430 290.427,198.540 290.133,197.000 289.807 C 195.460 289.481,193.660 289.233,193.000 289.257 C 191.945 289.295,191.993 289.338,193.400 289.612 M233.834 289.900 C 233.670 290.065,232.335 290.318,230.868 290.462 L 228.200 290.725 231.000 290.586 C 232.540 290.510,234.520 290.277,235.400 290.070 L 237.000 289.692 235.567 289.646 C 234.778 289.621,233.999 289.735,233.834 289.900 M209.125 291.099 C 212.714 291.166,218.474 291.166,221.925 291.099 C 225.376 291.033,222.440 290.978,215.400 290.978 C 208.360 290.979,205.536 291.033,209.125 291.099 " stroke="none" fill="#a4a4d4" fill-rule="evenodd"></path><path id="path3" d="M201.583 73.164 C 200.143 73.322,198.793 73.556,198.583 73.684 C 198.372 73.813,196.130 74.134,193.600 74.399 C 191.070 74.664,188.433 75.115,187.740 75.403 C 187.046 75.691,185.206 76.124,183.649 76.365 C 182.092 76.607,179.908 77.163,178.794 77.602 C 177.681 78.041,176.365 78.400,175.870 78.400 C 175.374 78.400,174.284 78.750,173.446 79.177 C 172.608 79.604,171.381 80.072,170.720 80.217 C 168.491 80.707,157.275 85.877,153.400 88.202 C 152.520 88.730,151.350 89.389,150.800 89.667 C 150.250 89.945,149.243 90.584,148.562 91.086 C 147.881 91.589,147.187 92.000,147.020 92.000 C 146.853 92.000,146.207 92.405,145.585 92.900 C 144.964 93.395,143.797 94.250,142.992 94.800 C 137.945 98.248,127.713 107.680,123.881 112.417 C 121.747 115.054,118.583 119.415,116.637 122.400 C 115.562 124.050,114.385 125.850,114.021 126.400 C 113.657 126.950,112.325 129.560,111.060 132.200 C 109.796 134.840,108.433 137.630,108.031 138.400 C 107.629 139.170,107.177 140.367,107.027 141.061 C 106.877 141.754,106.404 143.008,105.977 143.846 C 105.550 144.684,105.196 145.736,105.191 146.185 C 105.186 146.633,104.828 147.782,104.394 148.738 C 103.960 149.694,103.431 151.561,103.217 152.887 C 103.003 154.213,102.557 156.041,102.225 156.949 C 99.138 165.389,99.114 196.656,102.188 206.600 C 102.528 207.700,103.057 209.770,103.363 211.200 C 103.903 213.716,104.180 214.601,106.303 220.600 C 107.901 225.115,112.626 234.998,114.814 238.400 C 115.450 239.390,116.273 240.735,116.642 241.389 C 117.367 242.675,121.938 248.818,124.079 251.384 C 130.007 258.491,140.703 267.867,148.000 272.353 C 148.990 272.962,150.340 273.802,151.000 274.221 C 151.660 274.639,153.550 275.679,155.200 276.531 C 156.850 277.383,158.470 278.319,158.800 278.609 C 159.130 278.900,159.940 279.268,160.600 279.427 C 161.260 279.586,162.430 280.042,163.200 280.439 C 166.616 282.203,171.013 283.894,175.600 285.210 C 177.030 285.621,179.010 286.216,180.000 286.534 C 182.893 287.462,189.825 288.868,195.200 289.616 C 197.070 289.877,199.590 290.234,200.800 290.411 C 203.790 290.848,226.670 290.830,230.400 290.388 C 238.713 289.402,244.792 288.447,246.514 287.857 C 247.567 287.496,248.956 287.200,249.602 287.200 C 250.247 287.200,252.154 286.750,253.839 286.200 C 255.524 285.650,257.284 285.192,257.751 285.182 C 258.218 285.173,259.320 284.888,260.200 284.549 C 261.080 284.210,262.880 283.601,264.200 283.196 C 268.401 281.906,271.186 280.855,272.095 280.219 C 272.581 279.878,273.335 279.600,273.772 279.600 C 274.469 279.600,281.255 276.539,284.000 274.986 C 284.550 274.675,285.720 274.048,286.600 273.593 C 287.480 273.138,288.920 272.331,289.800 271.799 C 290.680 271.267,291.858 270.569,292.419 270.248 C 295.361 268.561,300.261 265.012,300.686 264.260 C 301.511 262.800,301.405 180.471,300.577 179.289 L 299.955 178.400 278.567 178.400 L 257.180 178.400 256.790 179.426 C 256.550 180.059,256.400 191.677,256.400 209.737 C 256.400 240.611,256.389 240.800,254.667 240.800 C 254.399 240.800,253.104 241.334,251.790 241.987 C 250.475 242.641,249.035 243.181,248.589 243.187 C 248.143 243.194,247.407 243.460,246.954 243.777 C 246.501 244.094,245.066 244.621,243.765 244.948 C 242.464 245.275,240.590 245.807,239.600 246.129 C 238.610 246.452,236.450 246.912,234.800 247.151 C 233.150 247.390,230.900 247.759,229.800 247.969 C 225.915 248.713,209.614 248.489,205.493 247.634 C 203.462 247.213,200.984 246.772,199.988 246.654 C 198.991 246.536,197.371 246.074,196.388 245.628 C 195.404 245.182,194.145 244.814,193.589 244.809 C 193.033 244.804,192.223 244.556,191.789 244.257 C 191.355 243.958,190.288 243.482,189.417 243.199 C 188.546 242.915,186.656 242.056,185.217 241.290 C 183.778 240.523,182.060 239.614,181.400 239.270 C 180.740 238.925,179.480 238.132,178.600 237.507 C 177.720 236.882,176.290 235.903,175.423 235.332 C 171.901 233.011,162.537 223.170,160.645 219.800 C 160.274 219.140,159.441 217.790,158.792 216.800 C 158.144 215.810,157.500 214.730,157.363 214.400 C 157.225 214.070,156.698 212.900,156.191 211.800 C 155.685 210.700,154.878 208.944,154.399 207.898 C 153.919 206.853,153.285 205.053,152.989 203.898 C 152.693 202.744,152.182 200.810,151.854 199.600 C 149.016 189.147,148.994 175.551,151.796 164.000 C 152.693 160.305,153.856 156.663,154.542 155.400 C 154.901 154.740,155.196 153.909,155.198 153.554 C 155.199 153.199,155.534 152.479,155.942 151.954 C 156.350 151.429,156.899 150.339,157.162 149.532 C 157.426 148.725,157.902 147.848,158.220 147.583 C 158.539 147.318,158.800 146.950,158.800 146.765 C 158.800 146.419,160.720 143.232,161.791 141.800 C 165.606 136.698,171.680 130.694,176.000 127.754 C 179.557 125.333,181.048 124.400,181.360 124.400 C 181.534 124.400,182.154 124.064,182.738 123.652 C 183.322 123.241,184.250 122.768,184.800 122.600 C 185.350 122.432,186.252 121.977,186.804 121.589 C 187.356 121.200,188.563 120.679,189.487 120.430 C 190.410 120.182,191.267 119.815,191.390 119.616 C 191.513 119.417,192.646 119.041,193.907 118.781 C 195.168 118.521,196.660 118.073,197.223 117.784 C 197.785 117.495,199.765 117.055,201.623 116.806 C 203.480 116.556,205.888 116.093,206.973 115.776 C 209.301 115.096,226.624 114.980,229.600 115.625 C 230.590 115.839,232.840 116.283,234.600 116.612 C 239.211 117.472,247.653 120.312,249.662 121.678 C 250.246 122.075,250.969 122.400,251.269 122.400 C 251.569 122.400,252.477 122.850,253.286 123.400 C 254.095 123.950,254.892 124.400,255.057 124.400 C 255.222 124.400,255.997 124.819,256.778 125.331 C 257.560 125.843,259.010 126.781,260.000 127.417 C 260.990 128.053,262.107 128.849,262.483 129.186 C 262.859 129.524,263.902 130.340,264.801 131.000 C 265.699 131.660,267.875 133.595,269.635 135.300 C 273.754 139.291,273.834 139.289,278.335 135.100 C 280.285 133.285,283.653 130.180,285.821 128.200 C 287.988 126.220,291.390 123.038,293.381 121.129 C 295.371 119.221,298.780 115.956,300.954 113.874 C 304.387 110.588,304.876 109.958,304.660 109.098 C 304.412 108.108,299.308 102.764,295.260 99.255 C 294.083 98.235,292.913 97.220,292.660 97.000 C 291.283 95.803,288.785 94.003,284.940 91.439 C 280.195 88.274,279.749 88.000,279.356 88.000 C 279.136 88.000,278.345 87.550,277.600 87.000 C 276.855 86.450,275.942 86.000,275.571 86.000 C 275.201 86.000,274.682 85.739,274.417 85.420 C 274.152 85.102,273.275 84.629,272.468 84.370 C 271.661 84.111,270.730 83.667,270.400 83.384 C 269.846 82.909,267.742 82.074,263.200 80.527 C 262.210 80.190,260.500 79.596,259.400 79.208 C 252.741 76.855,244.928 74.956,239.534 74.378 C 237.408 74.150,235.068 73.764,234.334 73.521 C 232.785 73.007,205.707 72.711,201.583 73.164 M231.200 73.958 C 232.190 74.228,235.340 74.672,238.200 74.944 C 241.060 75.217,243.805 75.662,244.301 75.934 C 244.797 76.207,246.777 76.620,248.701 76.852 C 250.668 77.090,252.491 77.534,252.864 77.867 C 253.230 78.193,254.532 78.595,255.758 78.762 C 256.984 78.928,258.318 79.364,258.723 79.730 C 259.127 80.096,260.345 80.511,261.429 80.651 C 262.513 80.791,263.760 81.227,264.200 81.620 C 264.640 82.013,265.720 82.457,266.600 82.605 C 267.480 82.753,268.693 83.222,269.296 83.647 C 269.899 84.071,270.925 84.525,271.576 84.655 C 272.227 84.785,273.063 85.228,273.434 85.638 C 273.806 86.049,274.715 86.498,275.455 86.637 C 276.195 86.775,276.800 87.055,276.800 87.259 C 276.800 87.462,277.565 87.993,278.500 88.439 C 280.970 89.616,282.504 90.509,283.781 91.513 C 284.401 92.001,285.147 92.400,285.440 92.400 C 285.732 92.400,286.165 92.760,286.400 93.200 C 286.635 93.640,287.065 94.000,287.355 94.000 C 287.644 94.000,288.434 94.495,289.110 95.100 C 289.785 95.705,290.579 96.380,290.873 96.600 C 293.343 98.446,295.707 100.447,297.336 102.070 C 298.400 103.132,299.435 104.000,299.636 104.000 C 299.836 104.000,300.000 104.199,300.000 104.443 C 300.000 104.686,300.900 105.730,302.000 106.763 C 304.665 109.265,304.584 109.637,300.559 113.400 C 298.676 115.160,295.436 118.265,293.359 120.300 C 291.283 122.335,289.452 124.001,289.292 124.003 C 289.131 124.004,287.762 125.264,286.248 126.803 C 284.735 128.341,283.385 129.602,283.248 129.605 C 283.112 129.608,281.110 131.405,278.800 133.600 C 273.783 138.367,273.741 138.374,270.388 134.978 C 267.967 132.526,261.920 127.600,261.332 127.600 C 261.186 127.600,260.782 127.325,260.434 126.988 C 259.482 126.070,256.262 124.016,255.761 124.007 C 255.520 124.003,254.902 123.635,254.387 123.189 C 253.873 122.743,252.991 122.266,252.426 122.128 C 251.862 121.991,250.971 121.545,250.446 121.139 C 249.921 120.733,249.273 120.400,249.006 120.400 C 248.738 120.400,247.727 119.979,246.760 119.465 C 245.792 118.951,244.221 118.427,243.269 118.299 C 242.317 118.172,241.226 117.785,240.845 117.440 C 240.457 117.089,238.753 116.625,236.976 116.386 C 235.229 116.152,233.170 115.654,232.400 115.280 C 230.195 114.209,207.973 114.267,204.800 115.352 C 203.590 115.766,201.290 116.238,199.689 116.400 C 197.922 116.580,196.496 116.951,196.060 117.346 C 195.665 117.703,194.455 118.105,193.371 118.238 C 192.287 118.372,190.943 118.800,190.384 119.190 C 189.826 119.580,188.799 120.025,188.103 120.177 C 187.407 120.330,186.424 120.775,185.919 121.167 C 185.413 121.558,184.518 121.996,183.928 122.140 C 183.338 122.283,182.600 122.658,182.286 122.971 C 181.973 123.284,181.105 123.829,180.358 124.181 C 178.057 125.267,175.600 126.841,175.600 127.230 C 175.600 127.433,175.406 127.600,175.168 127.600 C 174.529 127.600,168.078 133.178,166.000 135.528 C 163.385 138.485,162.000 140.261,162.000 140.659 C 162.000 140.851,161.640 141.232,161.200 141.507 C 160.760 141.782,160.400 142.247,160.400 142.541 C 160.400 142.835,160.047 143.396,159.615 143.786 C 159.183 144.177,158.635 145.089,158.396 145.813 C 158.157 146.537,157.717 147.223,157.418 147.338 C 157.120 147.452,156.749 148.143,156.595 148.873 C 156.440 149.603,155.997 150.560,155.611 151.000 C 155.224 151.440,154.797 152.387,154.663 153.104 C 154.529 153.821,154.072 154.901,153.649 155.504 C 153.226 156.107,152.763 157.405,152.621 158.390 C 152.478 159.374,152.087 160.483,151.750 160.855 C 151.369 161.276,151.020 162.825,150.826 164.956 C 150.654 166.840,150.292 168.648,150.021 168.975 C 148.504 170.803,148.499 192.791,150.015 194.618 C 150.282 194.940,150.648 196.662,150.828 198.445 C 151.012 200.270,151.408 201.974,151.734 202.343 C 152.052 202.705,152.444 203.810,152.605 204.800 C 152.765 205.790,153.325 207.409,153.848 208.397 C 154.372 209.385,154.800 210.486,154.800 210.843 C 154.800 211.200,155.160 211.950,155.600 212.509 C 156.040 213.069,156.400 213.799,156.400 214.132 C 156.400 214.466,156.850 215.273,157.400 215.927 C 157.950 216.581,158.403 217.270,158.407 217.458 C 158.418 217.947,160.626 221.249,161.589 222.214 C 162.035 222.662,162.400 223.240,162.400 223.500 C 162.400 223.760,162.760 224.165,163.200 224.400 C 163.640 224.635,164.000 225.019,164.000 225.253 C 164.000 225.662,171.233 232.849,173.501 234.694 C 176.447 237.091,177.758 238.000,178.268 238.000 C 178.574 238.000,178.925 238.261,179.048 238.581 C 179.170 238.900,179.869 239.359,180.600 239.600 C 181.331 239.841,182.026 240.290,182.144 240.597 C 182.261 240.904,182.986 241.274,183.753 241.418 C 184.520 241.561,185.448 242.011,185.815 242.417 C 186.183 242.823,187.049 243.274,187.741 243.420 C 188.434 243.567,189.540 244.008,190.200 244.401 C 190.860 244.794,192.210 245.244,193.200 245.401 C 194.190 245.558,195.308 245.959,195.685 246.292 C 196.080 246.641,197.692 247.034,199.485 247.220 C 201.198 247.397,203.230 247.870,204.000 248.271 C 206.056 249.342,230.696 249.386,232.637 248.322 C 233.317 247.950,235.297 247.526,237.037 247.381 C 238.846 247.231,240.844 246.795,241.705 246.363 C 242.532 245.948,243.972 245.492,244.905 245.351 C 245.837 245.209,246.870 244.864,247.200 244.584 C 247.530 244.304,248.605 243.860,249.589 243.598 C 250.573 243.336,252.013 242.803,252.789 242.415 C 253.565 242.026,254.740 241.452,255.400 241.139 L 256.600 240.570 256.809 210.185 C 256.924 193.473,257.059 179.755,257.109 179.700 C 257.711 179.040,299.624 179.698,299.986 180.374 C 300.583 181.489,300.558 262.226,299.961 263.940 C 299.719 264.633,299.276 265.200,298.975 265.200 C 298.674 265.200,297.837 265.716,297.114 266.346 C 296.391 266.976,295.412 267.613,294.937 267.761 C 294.462 267.909,293.979 268.277,293.864 268.578 C 293.749 268.878,293.121 269.242,292.469 269.385 C 291.816 269.528,290.966 269.995,290.579 270.423 C 290.193 270.850,289.648 271.200,289.369 271.200 C 289.090 271.200,288.327 271.650,287.673 272.200 C 287.019 272.750,286.220 273.200,285.896 273.200 C 285.573 273.200,284.831 273.575,284.248 274.034 C 283.665 274.493,282.518 275.053,281.700 275.279 C 280.882 275.505,279.780 276.029,279.252 276.445 C 278.724 276.860,277.981 277.200,277.600 277.200 C 277.219 277.200,276.450 277.560,275.891 278.000 C 275.331 278.440,274.524 278.800,274.096 278.800 C 273.669 278.800,272.526 279.222,271.556 279.737 C 270.587 280.253,269.075 280.808,268.197 280.971 C 267.318 281.134,266.315 281.523,265.967 281.835 C 265.619 282.147,264.287 282.596,263.007 282.833 C 261.727 283.069,260.035 283.609,259.246 284.031 C 258.457 284.454,257.082 284.800,256.191 284.800 C 255.299 284.800,253.857 285.163,252.987 285.607 C 252.116 286.051,249.927 286.581,248.121 286.787 C 246.315 286.992,244.335 287.417,243.719 287.731 C 243.102 288.046,240.650 288.433,238.251 288.593 C 235.859 288.753,232.529 289.171,230.851 289.523 C 226.292 290.479,204.645 290.480,200.400 289.525 C 198.750 289.154,195.600 288.727,193.400 288.576 C 191.200 288.425,188.907 288.050,188.304 287.743 C 187.702 287.436,185.722 286.988,183.904 286.748 C 182.087 286.508,180.296 286.043,179.923 285.715 C 179.551 285.387,178.163 284.990,176.838 284.834 C 175.513 284.678,174.103 284.255,173.704 283.894 C 173.305 283.533,172.174 283.122,171.190 282.979 C 170.205 282.837,168.923 282.386,168.340 281.978 C 167.757 281.569,166.767 281.107,166.140 280.951 C 165.513 280.795,164.208 280.247,163.240 279.733 C 162.273 279.220,161.058 278.800,160.540 278.800 C 160.023 278.800,159.600 278.610,159.600 278.378 C 159.600 278.145,158.835 277.588,157.900 277.140 C 156.965 276.692,155.300 275.810,154.200 275.181 C 153.100 274.551,151.627 273.760,150.927 273.424 C 150.227 273.087,149.540 272.627,149.400 272.400 C 149.260 272.174,148.483 271.629,147.673 271.190 C 145.403 269.960,144.817 269.557,142.011 267.300 C 140.575 266.145,138.969 264.885,138.443 264.500 C 137.916 264.115,137.053 263.395,136.525 262.900 C 135.996 262.405,135.471 262.000,135.357 262.000 C 134.890 262.000,123.202 249.759,123.198 249.266 C 123.197 249.119,122.252 247.810,121.098 246.355 C 119.944 244.900,118.550 242.949,118.000 242.019 C 117.450 241.090,116.595 239.869,116.100 239.306 C 115.605 238.744,115.200 238.074,115.200 237.819 C 115.200 237.564,114.750 236.745,114.200 236.000 C 113.650 235.255,113.200 234.342,113.200 233.971 C 113.200 233.601,112.939 233.082,112.620 232.817 C 112.302 232.552,111.829 231.675,111.570 230.868 C 111.311 230.061,110.843 229.106,110.530 228.747 C 110.218 228.388,109.770 227.401,109.536 226.554 C 109.302 225.706,108.771 224.580,108.355 224.052 C 107.940 223.524,107.599 222.621,107.599 222.046 C 107.598 221.471,107.224 220.388,106.768 219.640 C 106.312 218.892,105.778 217.292,105.581 216.084 C 105.385 214.877,104.949 213.586,104.613 213.215 C 104.277 212.843,103.889 211.385,103.750 209.970 C 103.611 208.556,103.177 206.590,102.785 205.600 C 102.359 204.526,101.887 201.622,101.615 198.400 C 101.364 195.430,100.949 191.740,100.693 190.200 C 100.093 186.594,100.093 177.006,100.693 173.400 C 100.949 171.860,101.364 168.170,101.615 165.200 C 101.887 161.978,102.359 159.074,102.785 158.000 C 103.177 157.010,103.611 155.044,103.750 153.630 C 103.889 152.215,104.277 150.757,104.613 150.385 C 104.949 150.014,105.385 148.723,105.581 147.516 C 105.778 146.308,106.312 144.708,106.768 143.960 C 107.224 143.212,107.598 142.129,107.599 141.554 C 107.599 140.979,107.940 140.076,108.355 139.548 C 108.771 139.020,109.302 137.894,109.536 137.046 C 109.770 136.199,110.218 135.212,110.530 134.853 C 110.843 134.494,111.311 133.539,111.570 132.732 C 111.829 131.925,112.302 131.048,112.620 130.783 C 112.939 130.518,113.200 129.999,113.200 129.629 C 113.200 129.258,113.650 128.345,114.200 127.600 C 114.750 126.855,115.200 126.036,115.200 125.781 C 115.200 125.526,115.605 124.856,116.100 124.294 C 116.595 123.731,117.450 122.501,118.000 121.561 C 118.550 120.620,119.270 119.561,119.600 119.208 C 120.708 118.021,123.200 114.672,123.200 114.369 C 123.200 113.137,136.749 100.083,141.020 97.200 C 141.835 96.650,142.937 95.795,143.469 95.300 C 144.001 94.805,144.583 94.400,144.763 94.400 C 144.943 94.400,145.769 93.860,146.600 93.200 C 147.431 92.540,148.361 92.000,148.668 92.000 C 148.974 92.000,149.325 91.739,149.448 91.419 C 149.570 91.100,150.263 90.643,150.987 90.404 C 151.711 90.165,152.623 89.617,153.014 89.185 C 153.404 88.753,153.958 88.400,154.244 88.400 C 154.530 88.400,155.428 87.950,156.238 87.400 C 157.049 86.850,158.024 86.400,158.407 86.400 C 158.789 86.400,159.325 86.131,159.598 85.802 C 159.872 85.473,160.839 84.989,161.747 84.726 C 162.656 84.463,163.829 83.923,164.354 83.524 C 164.879 83.126,165.606 82.800,165.969 82.800 C 166.333 82.800,167.344 82.433,168.215 81.985 C 169.087 81.537,170.607 80.987,171.594 80.762 C 172.580 80.538,173.660 80.111,173.994 79.813 C 174.327 79.515,175.500 79.148,176.600 78.997 C 177.700 78.846,179.320 78.388,180.200 77.980 C 181.080 77.572,183.202 77.066,184.914 76.856 C 186.627 76.646,188.296 76.253,188.622 75.982 C 188.951 75.709,191.835 75.249,195.107 74.948 C 198.348 74.650,201.900 74.153,203.000 73.844 C 205.619 73.109,228.428 73.201,231.200 73.958 " stroke="none" fill="#bcbcdc" fill-rule="evenodd"></path><path id="path4" d="M198.800 72.355 C 196.930 72.508,194.979 72.866,194.463 73.151 C 193.948 73.435,191.834 73.827,189.764 74.023 C 187.533 74.234,185.277 74.709,184.223 75.190 C 183.244 75.635,181.722 76.000,180.841 76.000 C 179.195 76.000,177.200 76.682,177.200 77.244 C 177.200 77.418,176.114 77.683,174.786 77.833 C 173.448 77.985,171.968 78.424,171.465 78.820 C 170.966 79.213,169.847 79.656,168.979 79.804 C 168.110 79.953,166.943 80.395,166.384 80.787 C 165.826 81.179,164.746 81.636,163.984 81.802 C 163.223 81.968,162.171 82.441,161.646 82.852 C 161.121 83.263,160.391 83.600,160.024 83.600 C 159.656 83.600,158.745 84.050,158.000 84.600 C 157.255 85.150,156.327 85.600,155.938 85.600 C 155.549 85.600,154.909 85.945,154.516 86.368 C 154.122 86.790,153.301 87.260,152.691 87.413 C 152.081 87.566,151.361 88.002,151.091 88.381 C 150.821 88.760,150.100 89.194,149.490 89.346 C 148.879 89.497,148.042 89.958,147.629 90.371 C 147.217 90.783,146.501 91.241,146.039 91.388 C 145.577 91.534,145.013 92.002,144.786 92.427 C 144.558 92.852,144.133 93.200,143.841 93.200 C 143.549 93.200,142.610 93.734,141.755 94.386 C 140.900 95.039,139.777 95.894,139.259 96.286 C 138.742 96.679,137.791 97.495,137.145 98.100 C 136.500 98.705,135.799 99.200,135.586 99.200 C 135.374 99.200,135.200 99.458,135.200 99.773 C 135.200 100.088,134.814 100.468,134.343 100.618 C 133.356 100.931,123.600 110.654,123.600 111.325 C 123.600 111.544,122.799 112.476,120.772 114.614 C 120.347 115.062,119.997 115.602,119.993 115.814 C 119.989 116.026,119.539 116.624,118.993 117.142 C 118.447 117.660,118.000 118.264,118.000 118.484 C 118.000 118.704,117.550 119.419,117.000 120.073 C 116.450 120.727,116.000 121.474,116.000 121.734 C 116.000 121.995,115.663 122.418,115.250 122.676 C 114.838 122.933,114.375 123.643,114.222 124.254 C 114.069 124.865,113.596 125.607,113.172 125.905 C 112.747 126.202,112.400 126.760,112.400 127.145 C 112.400 127.530,111.950 128.455,111.400 129.200 C 110.850 129.945,110.400 130.856,110.400 131.224 C 110.400 131.591,110.065 132.321,109.655 132.846 C 109.245 133.371,108.775 134.250,108.609 134.800 C 108.444 135.350,107.989 136.340,107.598 137.000 C 107.206 137.660,106.754 138.823,106.593 139.584 C 106.431 140.346,105.980 141.426,105.590 141.984 C 105.199 142.543,104.776 143.720,104.650 144.600 C 104.523 145.480,104.055 146.913,103.610 147.785 C 103.164 148.656,102.796 149.916,102.791 150.585 C 102.786 151.253,102.418 152.603,101.973 153.585 C 101.518 154.587,101.003 156.954,100.797 158.985 C 100.595 160.973,100.113 163.410,99.726 164.400 C 98.642 167.172,98.653 196.997,99.739 199.400 C 100.137 200.280,100.626 202.686,100.825 204.747 C 101.025 206.808,101.476 209.058,101.827 209.747 C 102.179 210.436,102.620 212.054,102.809 213.341 C 102.997 214.629,103.423 215.984,103.756 216.352 C 104.089 216.720,104.478 217.826,104.621 218.810 C 104.763 219.795,105.200 221.058,105.591 221.617 C 105.982 222.177,106.428 223.382,106.582 224.294 C 106.736 225.207,107.109 226.159,107.411 226.409 C 107.712 226.659,108.174 227.525,108.438 228.332 C 108.701 229.139,109.250 230.229,109.658 230.754 C 110.066 231.279,110.400 232.009,110.400 232.376 C 110.400 232.744,110.850 233.655,111.400 234.400 C 111.950 235.145,112.400 236.070,112.400 236.455 C 112.400 236.840,112.734 237.390,113.143 237.677 C 113.551 237.965,114.022 238.650,114.189 239.200 C 114.355 239.750,114.798 240.560,115.172 241.000 C 115.935 241.897,117.034 243.510,118.143 245.360 C 118.552 246.042,119.137 246.744,119.443 246.920 C 119.749 247.096,120.000 247.449,120.000 247.706 C 120.000 247.962,120.347 248.538,120.772 248.986 C 122.841 251.169,123.600 252.059,123.600 252.303 C 123.600 252.618,124.197 253.252,129.715 258.800 C 133.834 262.941,137.052 265.861,138.213 266.512 C 138.540 266.694,139.230 267.239,139.747 267.722 C 140.927 268.826,142.260 269.847,143.800 270.826 C 144.460 271.245,145.359 271.816,145.797 272.094 C 146.235 272.372,147.104 273.005,147.728 273.500 C 148.351 273.995,149.164 274.400,149.534 274.400 C 149.905 274.400,150.418 274.737,150.676 275.150 C 150.933 275.562,151.637 276.023,152.240 276.174 C 152.843 276.326,153.780 276.798,154.322 277.225 C 154.864 277.651,155.526 278.000,155.792 278.000 C 156.058 278.000,156.776 278.430,157.388 278.956 C 158.000 279.481,159.110 280.011,159.856 280.132 C 160.602 280.253,161.684 280.723,162.260 281.176 C 162.836 281.629,163.784 282.000,164.365 282.000 C 164.946 282.000,165.714 282.341,166.071 282.758 C 166.428 283.175,167.503 283.648,168.460 283.809 C 169.417 283.970,170.603 284.418,171.095 284.805 C 171.588 285.192,172.848 285.633,173.895 285.785 C 174.943 285.938,176.226 286.336,176.746 286.670 C 177.266 287.005,178.957 287.454,180.504 287.668 C 182.051 287.882,183.736 288.333,184.249 288.669 C 184.770 289.011,186.727 289.418,188.691 289.595 C 190.621 289.768,193.010 290.242,194.000 290.648 C 196.797 291.795,235.463 291.796,237.600 290.648 C 238.517 290.156,240.316 289.797,242.818 289.606 C 244.933 289.445,247.253 289.023,248.019 288.659 C 248.779 288.298,250.714 287.838,252.317 287.637 C 253.920 287.436,255.655 286.994,256.172 286.655 C 256.689 286.316,258.077 285.923,259.256 285.781 C 260.435 285.639,261.858 285.202,262.418 284.810 C 262.977 284.418,264.369 283.969,265.510 283.812 C 266.651 283.655,267.993 283.211,268.492 282.825 C 268.992 282.438,270.078 282.016,270.906 281.885 C 271.735 281.755,272.884 281.277,273.460 280.824 C 274.036 280.371,275.024 280.000,275.654 280.000 C 276.284 280.000,277.151 279.649,277.579 279.221 C 278.007 278.793,279.066 278.251,279.932 278.018 C 280.798 277.785,281.714 277.344,281.968 277.039 C 282.221 276.734,283.047 276.368,283.803 276.226 C 284.559 276.084,285.407 275.639,285.689 275.238 C 285.970 274.836,286.785 274.379,287.500 274.222 C 288.214 274.065,289.024 273.620,289.300 273.233 C 289.575 272.846,290.262 272.415,290.826 272.276 C 291.391 272.136,292.273 271.657,292.787 271.211 C 293.302 270.765,293.955 270.400,294.239 270.400 C 294.522 270.400,294.990 270.085,295.277 269.700 C 295.565 269.315,296.475 268.688,297.300 268.306 C 298.125 267.925,298.800 267.448,298.800 267.246 C 298.800 267.044,299.340 266.690,300.000 266.460 C 300.660 266.230,301.200 265.845,301.200 265.605 C 301.200 265.364,301.563 264.676,302.007 264.076 C 303.236 262.413,303.073 179.806,301.838 178.442 C 300.745 177.234,256.732 177.097,256.143 178.300 C 255.954 178.685,255.748 192.476,255.685 208.948 L 255.571 238.895 254.685 239.623 C 254.198 240.023,253.124 240.468,252.298 240.611 C 251.472 240.754,250.572 241.186,250.298 241.571 C 250.001 241.988,249.012 242.378,247.848 242.535 C 246.775 242.680,245.335 243.136,244.648 243.548 C 243.962 243.960,242.512 244.411,241.426 244.551 C 240.340 244.691,239.045 245.072,238.547 245.398 C 238.000 245.756,235.697 246.167,232.721 246.437 C 230.015 246.683,227.497 247.045,227.126 247.242 C 226.207 247.730,212.550 247.693,210.766 247.197 C 209.977 246.978,207.347 246.639,204.920 246.444 C 202.009 246.210,200.167 245.866,199.505 245.432 C 198.953 245.070,197.533 244.672,196.351 244.547 C 195.168 244.422,193.718 243.982,193.129 243.569 C 192.540 243.156,191.280 242.703,190.329 242.562 C 189.378 242.421,188.420 242.086,188.200 241.818 C 187.600 241.087,186.158 240.400,185.226 240.400 C 184.772 240.400,184.400 240.210,184.400 239.978 C 184.400 239.745,183.614 239.207,182.653 238.782 C 181.692 238.357,180.680 237.737,180.404 237.405 C 180.128 237.072,179.680 236.800,179.409 236.800 C 179.138 236.800,178.431 236.350,177.838 235.800 C 177.244 235.250,176.549 234.800,176.293 234.800 C 175.790 234.800,175.699 234.721,171.103 230.227 C 169.400 228.562,167.846 227.200,167.650 227.200 C 167.454 227.200,167.196 226.827,167.076 226.370 C 166.957 225.914,166.501 225.447,166.064 225.333 C 165.626 225.218,165.159 224.691,165.026 224.162 C 164.893 223.633,164.518 223.200,164.192 223.200 C 163.867 223.200,163.600 222.955,163.600 222.655 C 163.600 222.355,163.060 221.431,162.400 220.600 C 161.740 219.769,161.200 218.846,161.200 218.548 C 161.200 218.251,160.840 217.782,160.400 217.507 C 159.960 217.232,159.600 216.705,159.600 216.334 C 159.600 215.964,159.177 215.153,158.661 214.531 C 158.144 213.909,157.590 212.860,157.430 212.200 C 157.269 211.540,156.865 210.698,156.533 210.329 C 156.200 209.959,155.754 208.882,155.541 207.935 C 155.328 206.987,154.878 205.908,154.542 205.536 C 154.205 205.164,153.782 203.670,153.602 202.216 C 153.422 200.762,152.982 199.127,152.625 198.582 C 150.688 195.625,150.644 168.582,152.570 164.857 C 152.898 164.224,153.347 162.579,153.569 161.200 C 153.791 159.821,154.257 158.379,154.603 157.996 C 154.950 157.613,155.340 156.602,155.470 155.750 C 155.600 154.897,156.029 153.840,156.423 153.400 C 156.818 152.960,157.268 152.060,157.423 151.400 C 157.578 150.740,158.021 149.840,158.407 149.400 C 158.792 148.960,159.241 148.150,159.404 147.600 C 159.566 147.050,160.037 146.278,160.450 145.884 C 160.862 145.491,161.200 144.931,161.200 144.639 C 161.200 144.090,162.981 141.605,164.391 140.186 C 164.836 139.738,165.200 139.249,165.200 139.099 C 165.200 138.650,171.365 132.576,172.111 132.290 C 172.490 132.144,172.800 131.769,172.800 131.456 C 172.800 131.143,173.250 130.774,173.800 130.636 C 174.350 130.498,174.800 130.213,174.800 130.003 C 174.800 129.792,175.295 129.363,175.900 129.048 C 176.505 128.734,177.433 128.099,177.961 127.638 C 178.490 127.177,179.155 126.800,179.439 126.800 C 179.722 126.800,180.190 126.464,180.477 126.054 C 180.765 125.643,181.585 125.179,182.300 125.022 C 183.014 124.865,183.824 124.418,184.100 124.029 C 184.375 123.640,185.270 123.197,186.089 123.045 C 186.908 122.892,187.735 122.487,187.927 122.144 C 188.120 121.801,189.146 121.357,190.208 121.159 C 191.270 120.961,192.449 120.518,192.828 120.175 C 193.207 119.832,194.614 119.396,195.956 119.206 C 197.297 119.017,198.980 118.562,199.697 118.195 C 203.767 116.113,233.695 116.079,236.876 118.153 C 237.384 118.484,238.949 118.939,240.353 119.164 C 241.758 119.389,243.203 119.840,243.564 120.167 C 243.925 120.494,244.973 120.882,245.892 121.029 C 246.811 121.176,247.872 121.637,248.249 122.054 C 248.626 122.471,249.631 122.923,250.482 123.060 C 251.380 123.203,252.193 123.613,252.419 124.036 C 252.634 124.437,253.452 124.886,254.237 125.033 C 255.022 125.181,255.752 125.532,255.861 125.814 C 255.969 126.096,256.585 126.545,257.229 126.812 C 257.873 127.079,258.400 127.464,258.400 127.669 C 258.400 127.873,259.034 128.306,259.809 128.630 C 260.584 128.953,261.556 129.529,261.968 129.909 C 262.380 130.289,263.291 131.050,263.991 131.600 C 264.692 132.150,266.927 134.175,268.958 136.100 C 273.856 140.744,273.915 140.743,278.857 136.035 C 284.438 130.721,284.799 130.400,285.216 130.400 C 285.427 130.400,285.600 130.126,285.600 129.791 C 285.600 129.457,286.035 128.985,286.566 128.743 C 287.097 128.501,287.621 127.964,287.729 127.551 C 287.837 127.138,288.200 126.800,288.536 126.800 C 288.871 126.800,289.260 126.440,289.400 126.000 C 289.540 125.560,289.816 125.200,290.014 125.200 C 290.212 125.200,291.303 124.300,292.439 123.200 C 293.574 122.100,294.648 121.200,294.824 121.200 C 295.001 121.200,295.257 120.849,295.394 120.420 C 295.530 119.992,295.956 119.541,296.341 119.419 C 296.727 119.296,298.390 117.892,300.039 116.298 C 301.687 114.704,303.792 112.723,304.718 111.895 C 306.483 110.316,306.743 109.605,305.878 108.729 C 305.590 108.438,305.229 107.868,305.076 107.462 C 304.922 107.056,304.454 106.634,304.035 106.525 C 303.616 106.416,303.181 105.969,303.067 105.533 C 302.953 105.097,302.486 104.643,302.030 104.524 C 301.573 104.404,301.200 104.129,301.200 103.912 C 301.200 103.545,296.576 98.800,296.218 98.800 C 296.130 98.800,295.232 98.035,294.223 97.100 C 291.992 95.032,290.524 93.892,289.200 93.198 C 288.650 92.909,287.965 92.342,287.677 91.937 C 287.390 91.531,286.923 91.200,286.639 91.200 C 286.356 91.200,285.813 90.856,285.433 90.436 C 285.052 90.016,284.259 89.551,283.671 89.404 C 283.082 89.256,282.278 88.790,281.884 88.368 C 281.491 87.945,280.934 87.600,280.647 87.600 C 280.359 87.600,279.601 87.150,278.962 86.600 C 278.323 86.051,277.520 85.601,277.178 85.600 C 276.835 85.600,275.945 85.150,275.200 84.600 C 274.455 84.050,273.457 83.600,272.984 83.600 C 272.511 83.600,271.801 83.244,271.407 82.808 C 271.013 82.372,270.040 81.896,269.245 81.750 C 268.450 81.604,267.390 81.165,266.888 80.775 C 266.387 80.385,265.217 79.942,264.288 79.790 C 263.360 79.637,262.311 79.258,261.958 78.947 C 261.604 78.635,260.209 78.186,258.858 77.947 C 257.506 77.709,256.400 77.362,256.400 77.176 C 256.400 76.742,253.761 76.005,252.194 76.002 C 251.531 76.001,250.319 75.641,249.501 75.203 C 248.518 74.676,246.825 74.316,244.507 74.141 C 242.578 73.996,240.010 73.523,238.800 73.090 C 236.434 72.245,206.801 71.700,198.800 72.355 M234.800 73.179 C 235.790 73.424,238.578 73.889,240.997 74.212 C 243.415 74.535,246.205 75.061,247.197 75.379 C 248.188 75.698,250.036 76.142,251.301 76.366 C 252.567 76.590,253.921 76.944,254.311 77.152 C 254.700 77.361,256.117 77.816,257.460 78.164 C 258.803 78.512,260.419 79.066,261.051 79.396 C 261.683 79.725,262.477 79.996,262.815 79.998 C 263.154 79.999,264.144 80.364,265.015 80.810 C 265.887 81.255,267.314 81.813,268.186 82.048 C 269.058 82.284,270.207 82.820,270.740 83.239 C 271.272 83.657,272.019 84.000,272.400 84.000 C 272.781 84.000,273.521 84.335,274.046 84.745 C 274.571 85.155,275.450 85.626,276.000 85.792 C 276.550 85.959,277.270 86.322,277.600 86.601 C 277.930 86.879,278.920 87.490,279.800 87.958 C 284.016 90.199,292.199 95.868,295.000 98.487 C 305.270 108.090,306.302 109.670,303.748 111.889 C 302.896 112.629,300.827 114.531,299.149 116.117 C 297.470 117.703,294.348 120.620,292.211 122.600 C 290.073 124.580,287.298 127.190,286.045 128.400 C 273.866 140.156,274.029 140.087,269.372 135.500 C 267.753 133.905,265.690 132.060,264.787 131.400 C 263.885 130.740,262.812 129.899,262.404 129.530 C 261.995 129.162,261.253 128.643,260.755 128.376 C 260.258 128.110,259.659 127.733,259.425 127.539 C 257.608 126.031,247.953 120.796,246.994 120.799 C 246.771 120.799,245.940 120.453,245.148 120.028 C 244.356 119.604,243.009 119.129,242.154 118.974 C 241.299 118.818,239.790 118.377,238.800 117.994 C 237.810 117.610,236.010 117.171,234.800 117.017 C 233.590 116.863,231.004 116.371,229.053 115.924 C 224.700 114.927,210.428 115.041,207.200 116.099 C 206.210 116.423,204.067 116.817,202.438 116.975 C 200.809 117.132,198.649 117.582,197.638 117.976 C 196.627 118.369,195.160 118.807,194.378 118.949 C 193.595 119.091,192.252 119.566,191.393 120.004 C 190.534 120.442,189.618 120.800,189.358 120.800 C 188.830 120.800,181.956 124.302,179.264 125.942 C 174.582 128.795,167.135 135.432,164.000 139.544 C 163.450 140.266,162.695 141.194,162.321 141.607 C 161.948 142.020,161.341 142.952,160.973 143.679 C 160.605 144.405,160.075 145.270,159.796 145.600 C 158.986 146.557,155.776 152.846,155.202 154.600 C 154.914 155.480,154.454 156.560,154.179 157.000 C 153.904 157.440,153.558 158.430,153.411 159.200 C 153.265 159.970,152.805 161.680,152.389 163.000 C 149.382 172.559,149.381 190.046,152.387 200.400 C 152.802 201.830,153.253 203.540,153.388 204.200 C 153.523 204.860,153.986 206.165,154.417 207.100 C 155.673 209.826,156.707 212.096,157.378 213.600 C 157.721 214.370,158.535 215.810,159.187 216.800 C 159.838 217.790,160.674 219.140,161.045 219.800 C 163.183 223.608,172.444 233.100,176.661 235.806 C 177.947 236.632,179.474 237.634,180.054 238.032 C 181.548 239.059,188.803 242.800,189.299 242.800 C 189.526 242.800,190.452 243.143,191.356 243.561 C 193.855 244.719,199.445 246.306,202.800 246.810 C 204.450 247.058,207.168 247.528,208.839 247.855 C 212.378 248.545,226.437 248.411,229.800 247.655 C 230.900 247.407,233.516 246.961,235.613 246.663 C 237.710 246.365,239.811 245.915,240.282 245.663 C 240.753 245.411,242.037 245.012,243.136 244.776 C 244.234 244.541,245.816 244.000,246.651 243.574 C 247.486 243.148,248.500 242.800,248.905 242.800 C 249.310 242.800,250.307 242.440,251.121 242.001 C 251.934 241.562,253.276 240.940,254.103 240.620 C 256.455 239.710,256.400 240.482,256.400 208.454 C 256.400 186.048,256.515 178.845,256.880 178.480 C 257.647 177.713,299.569 177.797,300.624 178.568 C 301.564 179.255,302.081 261.867,301.159 264.097 C 300.748 265.091,296.514 268.400,295.654 268.400 C 295.458 268.400,295.063 268.683,294.776 269.029 C 294.489 269.375,293.611 270.012,292.827 270.444 C 292.042 270.876,290.680 271.665,289.800 272.198 C 288.920 272.730,287.480 273.531,286.600 273.978 C 285.720 274.425,284.730 274.960,284.400 275.168 C 283.319 275.849,278.547 278.000,278.117 278.000 C 277.887 278.000,277.490 278.250,277.237 278.556 C 276.983 278.861,275.971 279.314,274.988 279.561 C 274.005 279.809,272.616 280.368,271.900 280.804 C 271.185 281.240,270.278 281.598,269.884 281.599 C 269.490 281.599,268.492 281.945,267.665 282.367 C 266.839 282.788,265.451 283.263,264.581 283.421 C 263.712 283.579,262.366 284.027,261.591 284.416 C 260.815 284.805,259.285 285.253,258.191 285.411 C 257.096 285.569,255.570 285.962,254.800 286.285 C 254.030 286.608,252.050 287.116,250.400 287.415 C 248.750 287.714,246.416 288.238,245.213 288.580 C 244.010 288.921,242.300 289.209,241.413 289.221 C 240.526 289.233,238.450 289.509,236.800 289.835 C 229.572 291.262,203.097 291.655,197.400 290.420 C 196.300 290.181,193.510 289.718,191.200 289.390 C 188.890 289.062,186.370 288.547,185.600 288.245 C 184.830 287.944,182.896 287.479,181.301 287.213 C 179.707 286.946,178.309 286.576,178.194 286.391 C 178.080 286.206,176.954 285.841,175.693 285.581 C 174.432 285.320,172.770 284.790,172.000 284.403 C 171.230 284.015,169.970 283.563,169.200 283.399 C 168.430 283.234,167.170 282.782,166.400 282.394 C 163.223 280.792,160.488 279.600,159.992 279.600 C 159.701 279.600,159.179 279.351,158.831 279.047 C 158.484 278.743,156.760 277.739,155.000 276.815 C 153.240 275.891,151.516 274.880,151.169 274.568 C 150.821 274.255,150.381 274.000,150.190 274.000 C 149.671 274.000,143.579 269.955,142.225 268.712 C 141.798 268.320,141.329 268.000,141.183 268.000 C 141.037 268.000,140.449 267.595,139.877 267.100 C 139.305 266.605,138.243 265.752,137.518 265.204 C 135.237 263.480,122.859 250.875,122.205 249.609 C 121.861 248.944,121.416 248.400,121.217 248.400 C 121.017 248.400,120.753 248.085,120.629 247.700 C 120.506 247.315,119.999 246.510,119.502 245.910 C 118.322 244.484,117.057 242.666,115.531 240.200 C 114.851 239.100,113.965 237.723,113.564 237.140 C 113.163 236.557,112.720 235.620,112.578 235.057 C 112.437 234.493,112.078 233.831,111.781 233.584 C 111.484 233.338,111.026 232.475,110.762 231.668 C 110.499 230.861,109.950 229.771,109.542 229.246 C 109.134 228.721,108.800 227.996,108.800 227.635 C 108.800 227.274,108.522 226.581,108.181 226.095 C 107.596 225.260,106.662 222.851,105.350 218.800 C 105.030 217.810,104.574 216.460,104.337 215.800 C 103.913 214.618,103.508 213.116,102.017 207.200 C 99.145 195.807,98.520 177.463,100.559 164.400 C 101.634 157.514,103.291 150.172,104.157 148.460 C 104.452 147.877,104.820 146.701,104.975 145.846 C 105.130 144.991,105.604 143.644,106.028 142.852 C 106.453 142.060,106.800 141.121,106.800 140.765 C 106.800 140.410,107.250 139.273,107.800 138.238 C 108.350 137.204,108.800 136.121,108.800 135.833 C 108.800 135.544,109.134 134.879,109.542 134.354 C 109.950 133.829,110.499 132.739,110.762 131.932 C 111.026 131.125,111.490 130.257,111.795 130.004 C 112.099 129.752,112.460 129.036,112.597 128.414 C 112.734 127.792,113.195 126.966,113.623 126.579 C 114.050 126.193,114.400 125.666,114.400 125.409 C 114.400 125.153,114.935 124.235,115.589 123.371 C 116.243 122.507,116.783 121.646,116.789 121.458 C 116.795 121.270,117.256 120.550,117.814 119.858 C 119.605 117.637,120.179 116.879,121.200 115.386 C 124.736 110.215,136.359 98.901,142.160 94.983 C 142.797 94.552,143.723 93.930,144.217 93.600 C 144.710 93.270,145.958 92.411,146.990 91.691 C 148.022 90.972,149.526 90.015,150.333 89.565 C 151.140 89.115,152.520 88.310,153.400 87.776 C 154.280 87.242,155.630 86.530,156.400 86.193 C 157.170 85.856,158.070 85.401,158.400 85.182 C 158.730 84.963,159.630 84.510,160.400 84.175 C 161.170 83.841,162.455 83.214,163.254 82.783 C 164.054 82.352,164.954 81.994,165.254 81.987 C 165.555 81.981,166.700 81.532,167.800 80.991 C 168.900 80.450,170.073 80.006,170.406 80.004 C 170.739 80.002,171.640 79.663,172.408 79.252 C 173.176 78.840,174.613 78.369,175.602 78.204 C 176.591 78.040,177.898 77.651,178.506 77.339 C 179.114 77.028,180.914 76.534,182.506 76.241 C 184.098 75.947,186.570 75.421,188.000 75.070 C 190.715 74.404,197.546 73.286,202.000 72.779 C 205.940 72.330,232.684 72.657,234.800 73.179 " stroke="none" fill="#9494ca" fill-rule="evenodd"></path></g></svg>